<?xml version="1.0" standalone="no"?>
<!DOCTYPE svg PUBLIC "-//W3C//DTD SVG 20010904//EN"
 "http://www.w3.org/TR/2001/REC-SVG-20010904/DTD/svg10.dtd">
<svg version="1.0" xmlns="http://www.w3.org/2000/svg"
 width="260.000000pt" height="260.000000pt" viewBox="0 0 260.000000 260.000000"
 preserveAspectRatio="xMidYMid meet">
<metadata>
Created by potrace 1.11, written by Peter Selinger 2001-2013
</metadata>
<g transform="translate(0.000000,260.000000) scale(0.100000,-0.100000)"
fill="#000000" stroke="none">
<path d="M20 2585 c0 -8 -3 -15 -7 -15 -5 0 -9 -11 -9 -24 -2 -30 25 -39 60
-20 16 8 26 9 26 3 0 -7 12 -8 30 -4 27 6 30 4 30 -20 0 -20 4 -26 18 -23 12
3 16 12 14 31 -1 15 2 27 8 27 5 0 10 -21 10 -47 0 -51 10 -52 16 -2 5 41 14
51 14 16 0 -38 18 -34 23 6 3 17 4 4 3 -31 -1 -46 2 -62 13 -62 8 0 11 7 8 19
-2 10 -1 25 4 32 8 12 11 11 19 -1 11 -17 13 -10 10 36 -1 18 2 34 7 37 4 3 7
-27 5 -65 -2 -60 0 -69 12 -59 8 7 12 21 9 32 -5 17 -2 20 18 17 17 -2 25 -11
30 -35 3 -18 2 -34 -3 -37 -4 -2 -3 -3 4 -2 7 2 24 0 38 -4 17 -5 30 -2 38 6
10 11 10 14 -3 14 -12 0 -15 14 -15 75 0 43 4 75 10 75 11 0 15 -33 11 -100
-2 -35 0 -42 9 -33 7 6 13 41 13 77 1 36 6 61 10 57 5 -5 8 -46 8 -91 -1 -89
-1 -89 62 -64 8 3 17 -2 20 -11 5 -12 0 -15 -21 -14 -15 1 -54 -2 -87 -6 -33
-5 -70 -8 -82 -8 -13 1 -21 -2 -18 -7 6 -10 -22 -46 -31 -38 -4 4 -1 14 5 22
8 9 8 16 2 21 -13 8 -43 -61 -44 -101 -1 -30 -24 -43 -38 -21 -10 14 2 46 15
41 7 -3 12 4 12 16 0 11 -4 20 -8 20 -4 0 -8 -4 -8 -9 0 -5 -6 -8 -12 -7 -7 0
-14 -2 -16 -6 -2 -4 -15 -21 -30 -38 -32 -36 -81 -42 -89 -10 -3 11 -11 20
-19 20 -8 0 -11 -7 -8 -17 5 -14 4 -15 -4 -4 -5 7 -14 11 -20 7 -5 -3 -9 1 -8
10 0 9 -8 21 -19 28 -11 6 -23 15 -26 19 -3 4 -10 -3 -16 -16 -10 -20 -7 -28
13 -51 23 -24 24 -26 5 -26 -11 0 -25 8 -30 18 -9 15 -10 13 -11 -9 0 -24 4
-26 40 -26 21 0 46 -5 54 -12 16 -13 56 -6 56 10 0 5 11 9 25 9 33 0 32 -7
-12 -53 -30 -32 -33 -37 -13 -26 14 7 29 12 34 11 16 -5 34 19 29 39 -4 15 -2
18 12 12 14 -5 16 -3 10 7 -6 10 -4 12 8 7 10 -3 17 -2 17 3 0 6 5 10 11 10 7
0 9 -9 6 -22 -6 -22 -5 -22 15 2 19 23 20 24 14 3 -6 -18 -3 -22 13 -20 15 1
17 5 10 18 -8 15 -2 18 52 21 49 2 65 -1 81 -16 15 -14 22 -16 31 -7 9 9 8 14
-3 21 -12 8 -9 10 11 10 14 0 30 -5 37 -12 9 -9 12 -9 12 0 0 18 13 15 40 -10
14 -13 28 -22 32 -20 5 1 8 -5 8 -13 0 -8 5 -15 10 -15 6 0 10 -7 10 -15 0 -8
10 -19 21 -26 17 -9 19 -13 8 -20 -11 -7 -9 -9 8 -9 29 0 37 -15 18 -34 -16
-15 -49 -11 -39 5 3 5 0 9 -5 9 -6 0 -11 -5 -11 -11 0 -6 -8 -9 -18 -7 -15 4
-18 1 -15 -16 4 -17 11 -21 37 -20 25 1 33 -2 32 -14 -1 -16 3 -18 40 -21 8 0
13 -5 10 -9 -3 -5 -36 -10 -73 -11 -37 -1 -71 -5 -76 -8 -4 -3 -11 4 -14 16
-3 12 -10 21 -15 21 -5 0 -6 -5 -2 -11 4 -7 -1 -7 -16 1 -12 6 -24 9 -28 6 -3
-3 1 -6 9 -6 11 0 11 -2 -1 -10 -13 -8 -13 -10 2 -10 34 0 26 -16 -10 -18 -20
-2 -42 -8 -49 -14 -9 -7 -14 -6 -19 6 -6 15 -8 15 -23 -1 -9 -10 -26 -17 -38
-15 -25 4 -30 17 -12 28 8 4 7 9 -2 15 -23 14 -32 10 -26 -12 4 -15 0 -23 -14
-26 -10 -3 -19 -8 -19 -12 0 -4 -10 -7 -22 -8 -11 -1 -24 -6 -27 -11 -3 -5
-26 -12 -51 -16 -39 -6 -48 -3 -72 19 -31 29 -40 31 -32 10 4 -8 13 -15 21
-15 8 0 11 -5 7 -12 -5 -7 -3 -8 6 -3 9 5 11 4 6 -3 -4 -7 -19 -12 -34 -12
-15 0 -34 -5 -42 -11 -13 -9 -12 -10 3 -5 18 6 67 -12 79 -29 8 -11 68 -14 68
-3 0 3 -12 16 -28 27 l-27 20 28 1 c16 0 27 -5 27 -14 0 -7 7 -19 15 -26 8 -7
15 -8 15 -3 0 12 58 4 66 -8 3 -5 15 -4 27 3 31 17 55 17 62 0 5 -13 8 -12 21
4 12 15 15 15 11 3 -4 -12 -1 -15 13 -12 11 3 16 11 13 19 -7 19 5 34 22 28 8
-4 12 -10 9 -15 -3 -5 -1 -9 4 -9 6 0 12 7 16 15 8 23 25 18 19 -6 -5 -19 -3
-20 14 -10 11 5 23 7 27 3 4 -3 10 -1 14 5 4 7 22 13 40 15 18 1 31 7 29 13
-3 5 6 10 18 10 15 0 20 -4 15 -10 -6 -7 -1 -16 11 -23 14 -9 18 -19 14 -35
-4 -15 -4 -18 3 -8 8 11 10 11 14 0 3 -8 9 -9 18 -4 11 7 10 10 -2 19 -15 11
-38 49 -38 61 0 4 16 4 36 0 27 -5 34 -3 29 6 -5 7 -3 10 6 7 20 -7 69 -80 64
-95 -2 -7 -1 -13 3 -13 4 0 8 -9 9 -20 1 -11 -2 -18 -8 -15 -5 4 -9 0 -9 -7 0
-8 -5 -6 -11 5 -9 15 -12 15 -25 3 -21 -22 -18 -25 22 -23 39 2 39 2 68 -67
11 -26 14 -42 7 -49 -7 -7 -12 -1 -17 17 -6 25 -18 34 -27 19 -2 -5 -2 -2 0 5
1 8 -4 23 -13 35 l-16 22 7 -22 c8 -30 -3 -63 -21 -63 -13 0 -19 23 -15 63 1
9 -5 20 -13 23 -11 4 -14 13 -9 32 4 16 2 23 -5 18 -6 -3 -14 -1 -18 6 -5 7
-10 4 -16 -11 -9 -25 7 -65 23 -56 5 4 9 -3 9 -14 0 -12 -7 -21 -15 -21 -17 0
-20 -16 -5 -25 16 -10 12 -25 -5 -19 -8 3 -13 11 -12 16 1 6 -4 13 -11 15 -17
7 9 -47 33 -67 9 -7 13 -20 9 -32 -3 -10 -2 -18 3 -17 23 4 32 -4 36 -33 2
-18 5 -1 7 37 1 39 5 60 7 48 2 -13 9 -23 14 -23 5 0 9 -6 9 -14 0 -8 5 -16
12 -18 12 -4 -14 -101 -34 -125 -14 -17 -28 -7 -22 15 4 12 3 13 -3 4 -8 -10
-19 -7 -54 12 -24 14 -55 27 -69 30 -14 3 -43 10 -65 15 -22 6 -61 11 -87 11
-39 0 -48 3 -48 18 0 13 -2 14 -9 4 -6 -11 -13 -8 -29 12 l-20 26 -14 -36
c-11 -27 -16 -32 -21 -21 -3 9 -2 19 3 22 16 10 11 42 -7 49 -15 6 -15 8 3 20
10 7 28 15 39 18 11 3 28 9 38 13 12 5 17 2 17 -9 0 -9 8 -16 18 -16 10 0 23
-5 30 -12 9 -9 12 -9 12 0 0 19 -22 53 -50 78 -21 18 -22 24 -11 37 7 9 10 21
6 27 -3 5 -2 10 3 10 5 0 14 -12 21 -27 12 -25 13 -26 23 -9 7 13 7 20 -1 25
-6 4 2 12 19 18 26 10 30 9 35 -8 4 -10 11 -19 17 -19 6 0 8 -3 5 -7 -4 -3 3
-11 15 -17 30 -15 35 -36 8 -36 -19 0 -20 -2 -7 -15 9 -8 17 -20 19 -26 3 -9
14 -8 41 2 38 13 45 23 27 34 -5 3 -10 2 -10 -3 0 -5 -7 -9 -15 -9 -11 0 -12
4 -4 14 9 10 8 13 -5 13 -12 0 -16 10 -16 41 0 36 3 40 23 39 38 -4 57 0 57 9
0 5 -10 7 -22 3 -14 -3 -19 -2 -14 6 7 12 -4 16 -35 13 -16 -2 -47 27 -41 38
2 3 -4 7 -13 9 -12 3 -15 -4 -13 -27 1 -17 5 -31 8 -31 3 0 6 -9 6 -21 0 -19
-1 -19 -13 -3 -7 10 -13 22 -13 27 0 4 -4 6 -9 2 -5 -3 -12 -1 -15 4 -4 5 2
12 11 14 17 4 17 5 1 6 -10 0 -18 5 -18 11 0 12 -28 8 -60 -9 -16 -10 -25 -10
-28 -3 -2 8 -11 8 -29 1 -15 -5 -34 -7 -42 -3 -26 11 -41 13 -41 4 0 -4 -8 -7
-17 -6 -10 0 -19 -7 -21 -18 -2 -10 0 -16 5 -13 5 3 9 -3 9 -13 0 -15 -6 -18
-33 -14 -24 3 -33 0 -33 -11 0 -16 -2 -17 -42 -20 -22 -2 -29 4 -39 29 -9 24
-13 27 -16 13 -4 -16 -6 -15 -24 5 -16 20 -20 21 -29 8 -7 -11 -10 -11 -10 -2
0 7 -4 11 -10 7 -5 -3 -7 -12 -3 -20 3 -8 0 -15 -7 -15 -6 0 -9 4 -5 9 3 5 1
12 -5 16 -15 9 -2 25 21 25 10 0 19 4 19 9 0 17 -26 29 -57 27 -36 -2 -53 -13
-37 -24 18 -12 22 -37 9 -49 -7 -6 -16 -9 -19 -6 -3 4 -6 -1 -6 -10 0 -8 7
-22 15 -30 8 -9 10 -17 5 -19 -6 -2 -13 -15 -15 -28 -4 -23 -1 -25 23 -24 15
1 36 3 47 3 17 1 17 3 5 11 -13 8 -12 10 3 10 10 0 20 -6 23 -14 3 -8 12 -12
19 -10 7 3 16 -3 18 -13 9 -30 3 -68 -10 -69 -7 -1 -14 -2 -15 -3 -2 -2 -20
-4 -41 -7 -23 -3 -37 0 -37 7 0 6 7 8 17 5 10 -4 14 -4 11 0 -4 4 -2 16 4 27
8 17 8 19 -5 14 -9 -3 -18 -1 -21 6 -3 7 -3 2 -1 -9 4 -14 0 -24 -10 -27 -8
-4 -12 -13 -9 -22 4 -8 -1 -17 -10 -21 -23 -9 -20 -51 4 -57 11 -3 20 0 20 6
0 7 4 6 9 -2 6 -10 5 -18 -4 -25 -9 -8 -10 -18 -4 -33 10 -29 33 -31 26 -3 -3
11 -1 18 4 14 13 -8 11 20 -2 33 -6 6 -9 19 -7 29 3 12 10 0 22 -34 10 -28 22
-50 27 -46 5 3 9 0 9 -6 0 -13 51 -5 60 10 3 4 10 2 17 -5 9 -10 5 -14 -24
-20 -40 -7 -71 -31 -50 -38 9 -3 9 -7 -1 -19 -10 -13 -10 -17 0 -21 8 -4 5 -8
-9 -12 -13 -4 -23 -15 -23 -24 0 -18 -48 -51 -74 -51 -18 0 -21 -15 -6 -25 5
-3 10 -1 10 4 0 6 5 11 11 11 5 0 7 -5 4 -10 -3 -6 -2 -10 3 -10 6 0 12 7 16
15 3 8 16 15 28 15 19 0 20 2 8 10 -11 7 -12 10 -2 10 8 0 16 -9 19 -20 3 -11
9 -17 14 -14 5 3 9 -1 9 -8 0 -8 -11 -14 -27 -15 -49 -1 -53 -3 -53 -18 0 -8
-11 -22 -25 -31 -21 -14 -23 -19 -13 -32 8 -10 8 -13 2 -9 -8 5 -12 -11 -13
-53 0 -51 2 -58 13 -48 9 8 11 17 5 23 -5 5 -9 16 -9 25 0 9 3 11 8 5 12 -16
32 -16 26 0 -4 11 -2 13 9 9 8 -3 18 -1 22 5 3 7 0 8 -9 5 -20 -8 -21 3 -2 22
13 12 15 9 22 -19 6 -28 8 -29 15 -12 6 16 8 14 8 -12 1 -24 5 -31 16 -27 9 4
14 18 13 40 -1 18 -5 31 -9 28 -10 -6 -22 33 -14 46 5 8 15 6 31 -4 29 -20 35
-20 28 -1 -5 12 2 15 27 14 28 0 31 -2 14 -9 -19 -8 -19 -9 3 -9 12 -1 22 3
22 8 0 14 37 20 50 7 9 -8 11 -6 8 9 -3 16 -11 19 -36 17 -18 -1 -32 3 -32 8
0 6 -13 4 -30 -5 -29 -15 -30 -14 -43 12 -28 55 -30 72 -7 70 11 -1 18 -7 16
-13 -3 -7 2 -15 11 -18 20 -8 21 -6 29 32 5 27 4 31 -9 26 -12 -4 -14 -1 -10
15 13 50 47 29 38 -24 -3 -16 -2 -24 1 -17 3 6 12 12 20 12 8 0 14 5 14 10 0
6 -4 10 -10 10 -5 0 -7 7 -3 16 6 15 8 15 20 -2 7 -10 13 -12 13 -6 0 7 6 12
14 12 7 0 16 9 19 21 4 15 2 19 -8 15 -8 -3 -17 0 -21 5 -4 7 3 9 17 7 13 -2
23 -9 22 -16 -2 -6 2 -12 8 -12 6 0 9 9 6 20 -3 11 -1 18 4 14 5 -3 9 0 9 5 0
6 7 11 15 11 14 0 14 -3 0 -24 -15 -22 -14 -24 11 -41 15 -9 23 -12 20 -6 -4
6 -2 11 3 11 6 0 11 7 11 16 0 13 3 14 13 5 11 -8 13 -4 9 22 l-5 32 20 -22
c27 -30 34 -29 27 6 -3 16 -1 31 4 35 6 4 8 -2 4 -16 -4 -16 -2 -19 8 -13 10
6 12 4 6 -11 -5 -10 -11 -28 -13 -39 -5 -20 -5 -20 9 -1 11 14 17 16 23 6 6
-10 9 -9 16 1 7 11 9 11 9 1 0 -7 4 -11 9 -7 13 7 26 -16 14 -24 -6 -3 -7 -15
-2 -26 4 -11 8 -14 8 -7 1 6 6 12 12 12 7 0 18 8 25 18 10 13 13 14 14 3 0 -8
-8 -23 -17 -34 -10 -11 -12 -17 -5 -13 7 4 12 1 12 -9 0 -12 4 -14 19 -5 30
16 36 12 16 -10 -15 -16 -16 -23 -6 -33 10 -9 11 -8 6 6 -4 9 -3 17 3 17 27 0
18 -41 -10 -46 -5 -1 -11 -3 -15 -4 -5 -1 -16 -2 -25 -1 -20 2 -34 -35 -18
-53 6 -8 12 -28 15 -45 3 -26 0 -31 -17 -31 -21 0 -21 0 2 -20 17 -15 19 -21
9 -25 -35 -12 -69 -12 -91 -1 -13 7 -29 11 -36 8 -6 -2 -12 1 -12 6 0 6 10 13
23 15 19 4 19 4 -5 6 -15 0 -30 6 -33 12 -5 6 -11 4 -19 -7 -7 -9 -19 -14 -27
-11 -10 4 -9 6 4 6 9 1 17 6 17 12 0 7 -7 8 -17 4 -32 -13 -118 -11 -116 3 4
15 -2 15 -29 1 -15 -8 -22 -8 -28 1 -5 9 -9 9 -14 1 -4 -6 -2 -11 5 -11 7 0 9
-3 5 -7 -4 -4 -15 -8 -24 -8 -14 0 -17 -9 -16 -48 1 -26 -3 -50 -8 -53 -6 -4
-5 -10 3 -16 11 -8 11 -9 -1 -6 -8 3 -17 15 -21 29 -5 16 -7 18 -8 7 -1 -10
-5 -18 -11 -18 -5 0 -10 -5 -10 -11 0 -5 4 -7 10 -4 5 3 10 2 10 -4 0 -5 -5
-13 -11 -17 -8 -5 -8 -9 1 -14 8 -5 6 -9 -8 -12 -15 -4 -19 -1 -17 16 1 11 -2
32 -6 46 l-7 25 -2 -25 c-4 -68 -9 -93 -19 -103 -8 -8 -11 2 -12 39 l-1 49
-13 -40 c-11 -32 -18 -35 -17 -5 0 3 -6 11 -14 18 -12 11 -14 5 -14 -37 0 -54
-5 -51 60 -37 11 3 23 -2 29 -11 5 -10 16 -14 30 -10 12 3 21 0 21 -6 0 -7 4
-6 10 3 16 26 20 4 6 -41 -11 -35 -15 -40 -21 -26 -7 17 -10 16 -32 -10 -14
-15 -22 -21 -18 -13 4 10 2 9 -8 -2 -15 -19 -33 -25 -23 -9 4 5 -7 4 -24 -2
-20 -8 -30 -18 -30 -32 0 -16 2 -17 10 -5 8 12 10 12 16 -4 5 -14 9 -15 15 -4
7 11 11 10 19 -2 5 -8 8 -20 6 -27 -5 -12 18 -169 30 -207 9 -27 54 -94 54
-80 0 6 -12 47 -26 90 -14 43 -27 106 -29 140 -2 34 -8 71 -14 82 -14 27 -14
32 4 32 10 0 12 -6 8 -17 -6 -16 -5 -17 12 -3 17 14 17 13 10 -10 -17 -54 -17
-55 -1 -36 9 11 16 25 16 30 0 6 8 20 16 31 15 20 16 19 12 -5 -2 -16 2 -24 9
-23 7 2 17 -14 23 -35 12 -42 30 -75 30 -54 0 7 -5 22 -10 33 -8 14 -7 19 3
19 13 0 17 34 5 46 -4 3 -4 12 -2 19 3 7 -4 15 -15 18 -13 3 -21 -1 -24 -12
-4 -13 -5 -12 -6 3 -1 21 25 45 51 46 10 0 25 11 34 24 9 15 21 23 30 19 10
-4 12 0 8 11 -10 25 4 66 20 60 19 -7 39 31 30 59 -7 22 -6 22 14 3 21 -18 21
-18 16 10 -3 21 -2 25 5 14 6 -8 16 -15 23 -16 7 0 21 -2 31 -2 9 -1 17 -10
17 -19 0 -15 2 -16 9 -3 6 8 7 28 5 45 -4 23 -3 26 5 15 9 -13 12 -12 26 5 11
15 14 16 9 3 -9 -25 4 -42 22 -27 25 21 15 4 -24 -39 -21 -23 -43 -42 -49 -42
-6 0 -16 -6 -22 -14 -7 -8 -26 -18 -42 -21 -16 -4 -29 -11 -29 -16 0 -5 -15
-17 -34 -26 -37 -17 -39 -43 -4 -43 23 0 92 39 84 48 -3 3 -14 -2 -23 -10 -10
-9 -29 -19 -43 -23 -15 -4 -7 4 21 22 25 15 54 34 65 41 10 6 26 15 34 19 8 4
20 13 25 20 8 10 17 7 42 -13 32 -24 45 -57 22 -52 -6 2 -13 -4 -14 -12 -2 -8
-7 -24 -11 -35 -7 -18 -6 -19 11 -5 17 14 17 14 4 -7 -8 -13 -17 -23 -22 -23
-4 0 -5 5 -2 10 8 13 2 13 -30 -2 -21 -9 -25 -17 -20 -36 4 -15 2 -21 -5 -17
-5 3 -10 -1 -10 -10 0 -10 5 -13 12 -9 7 4 8 3 4 -4 -4 -7 -15 -8 -30 -2 -36
13 -37 2 -5 -31 16 -16 29 -34 29 -39 0 -12 -41 -9 -59 4 -11 8 -13 8 -8 -1 4
-7 -1 -14 -13 -18 -11 -3 -20 -13 -20 -20 0 -9 6 -12 18 -9 14 5 15 4 2 -5
-13 -9 -12 -11 4 -11 13 0 17 5 13 20 -4 16 -2 18 12 10 12 -6 22 -5 31 3 10
10 10 8 1 -10 -17 -33 -13 -39 9 -15 27 29 32 28 52 -8 12 -21 14 -30 5 -30
-21 0 -17 -38 4 -43 16 -4 18 -1 13 19 -4 16 -2 24 7 24 11 1 10 4 -2 13 -21
16 -34 93 -16 100 9 4 9 8 -2 15 -9 7 -11 19 -7 37 4 15 3 24 -1 22 -5 -3 -9
3 -9 14 0 14 7 19 28 19 15 0 28 4 28 10 0 5 6 7 14 4 8 -3 12 -12 9 -20 -8
-21 5 -17 16 5 7 11 7 30 1 50 -5 19 -5 31 1 31 5 0 9 -8 9 -18 0 -40 15 -30
38 25 13 32 25 66 27 75 7 32 26 59 37 52 7 -5 9 -2 5 8 -9 25 14 41 29 20 12
-16 13 -15 14 5 0 12 4 25 10 28 6 3 7 -1 4 -9 -3 -9 -1 -16 6 -16 6 0 9 -4 6
-9 -10 -15 13 -63 27 -58 6 2 12 13 13 24 1 12 4 28 7 37 4 9 1 16 -6 16 -8 0
-8 3 2 9 11 7 11 9 0 14 -10 4 -9 6 4 6 9 1 17 -6 17 -14 0 -16 12 -20 23 -8
4 3 1 13 -6 22 -11 14 -10 14 6 2 23 -18 22 -25 -8 -41 -32 -17 -32 -30 1 -30
19 0 25 4 20 15 -3 8 -2 15 3 15 4 0 12 -16 18 -35 6 -20 7 -35 2 -35 -5 0 -9
-11 -9 -25 0 -14 5 -25 11 -25 6 0 8 -8 5 -18 -5 -14 -3 -13 10 3 16 19 16 19
12 -7 -3 -18 0 -29 9 -32 23 -9 26 -7 20 14 -5 20 15 50 33 50 5 0 15 -6 22
-14 9 -9 20 -11 29 -5 13 7 15 0 11 -49 -5 -65 -26 -93 -48 -64 -11 14 -15 14
-22 4 -7 -10 -11 -7 -16 12 -4 15 -11 24 -17 21 -5 -4 -16 -1 -24 5 -8 7 -15
9 -15 6 0 -10 -36 27 -44 44 -3 8 -4 3 -1 -12 4 -23 2 -25 -17 -20 -16 4 -19
2 -12 -9 12 -19 14 -39 4 -39 -5 0 -11 8 -13 18 -3 9 -5 3 -4 -15 1 -25 4 -30
14 -21 8 6 13 7 13 0 0 -11 -25 -34 -31 -28 -2 2 -4 -11 -5 -29 0 -20 5 -36
13 -39 7 -3 13 -13 13 -21 0 -9 4 -14 8 -11 4 2 8 -4 8 -15 0 -10 -4 -19 -8
-19 -4 0 -8 5 -8 12 0 12 -29 -21 -30 -34 0 -4 10 -8 22 -10 12 -2 24 -10 26
-18 5 -13 3 -13 -11 -1 -23 18 -22 -1 1 -29 18 -23 18 -23 16 21 -1 24 1 48 4
54 9 15 9 37 -1 59 -6 13 -5 21 4 27 21 13 29 11 28 -8 0 -11 -3 -13 -6 -5 -2
6 -9 10 -13 7 -15 -10 1 -35 22 -35 18 0 20 4 14 40 -4 23 -2 40 3 40 6 0 3
12 -5 27 -19 37 -17 55 2 23 14 -24 15 -24 11 -2 -5 23 7 30 19 10 4 -6 9 -34
10 -62 4 -66 6 -76 14 -76 3 0 6 -9 6 -20 0 -11 -4 -20 -9 -20 -5 0 -6 -14 -2
-30 4 -17 4 -30 2 -30 -10 0 -48 70 -43 78 2 4 -6 9 -20 10 -26 2 -33 -13 -9
-22 8 -3 15 -10 15 -16 0 -6 5 -16 10 -23 39 -46 50 -61 50 -69 0 -5 -4 -6
-10 -3 -5 3 -10 -1 -10 -10 0 -9 -7 -23 -15 -31 -8 -9 -15 -12 -15 -7 0 5 -9
9 -20 10 -11 1 -20 -4 -20 -13 0 -8 -5 -14 -11 -14 -5 0 -7 -5 -4 -10 4 -6 11
-7 17 -4 17 10 -7 -29 -31 -50 -21 -19 -21 -19 -21 10 -1 27 -3 26 -26 -20
-14 -27 -29 -45 -32 -40 -13 18 -32 14 -32 -7 0 -15 5 -19 16 -15 12 4 10 -1
-5 -23 -16 -22 -26 -28 -43 -23 -12 3 -17 7 -10 10 19 6 4 22 -16 16 -16 -5
-16 -5 1 9 9 8 17 20 17 26 0 8 -5 7 -16 -3 -20 -21 -27 -20 -42 5 -8 12 -19
18 -28 15 -9 -3 -14 1 -15 12 0 14 -2 14 -9 -3 -5 -13 -3 -28 6 -41 11 -19 11
-24 -5 -38 -11 -10 -25 -14 -36 -10 -13 5 -16 3 -13 -7 5 -16 48 -25 48 -10 0
7 8 7 25 -1 23 -10 24 -13 10 -27 -12 -12 -19 -13 -33 -5 -13 9 -21 8 -31 -3
-7 -8 -21 -13 -31 -10 -13 3 -16 0 -13 -17 3 -13 1 -17 -4 -10 -4 6 -23 11
-42 12 -18 0 -38 5 -43 10 -14 14 51 51 79 46 12 -2 23 0 23 6 0 5 -5 10 -11
10 -6 0 -9 5 -7 12 5 14 40 20 48 9 3 -5 10 -4 15 3 7 8 1 20 -19 39 -16 16
-26 21 -23 13 8 -19 -27 -17 -46 4 -10 10 -9 12 5 7 12 -4 16 -1 15 12 -1 24
-24 44 -33 30 -3 -6 -1 -15 6 -19 9 -6 9 -9 0 -15 -6 -4 -9 -13 -6 -20 3 -8 1
-15 -3 -17 -5 -2 -5 -12 0 -23 6 -17 8 -17 8 -2 1 29 16 19 17 -13 1 -16 -3
-27 -7 -24 -12 7 -90 -37 -83 -47 2 -4 0 -10 -6 -14 -5 -3 -10 3 -10 13 0 11
7 23 16 26 8 3 12 11 9 17 -5 7 -11 7 -17 1 -17 -17 -42 14 -29 35 7 12 10 14
11 4 0 -11 3 -11 15 -1 10 8 13 21 9 33 -5 17 -4 18 9 6 8 -8 15 -16 15 -19 0
-3 3 -16 7 -28 6 -17 10 -20 16 -11 4 7 3 23 -2 36 -5 12 -6 23 -3 23 4 0 1 7
-7 16 -15 19 -20 54 -6 54 5 0 11 -9 14 -20 3 -11 10 -20 15 -20 5 0 6 4 3 10
-3 5 -1 19 6 31 7 15 8 19 0 15 -18 -12 -41 7 -31 24 9 13 10 13 11 0 0 -8 5
-2 10 15 6 21 5 33 -6 45 -8 9 -15 23 -15 31 0 12 -2 12 -9 0 -7 -11 -11 -10
-20 6 -5 11 -8 23 -5 25 3 3 -4 8 -16 11 -11 3 -18 2 -16 -2 3 -4 0 -13 -6
-21 -8 -12 -9 -12 -4 3 3 9 1 17 -4 17 -5 0 -6 7 -3 17 4 10 2 14 -4 10 -6 -4
-11 -1 -10 6 0 6 -1 26 -2 42 -1 22 -4 26 -10 15 -6 -8 -7 -18 -5 -22 8 -12
-27 -43 -34 -31 -4 5 -18 16 -32 23 l-25 12 23 -21 c12 -12 22 -31 22 -41 0
-11 6 -20 14 -20 16 0 25 -39 19 -74 -4 -17 -10 -23 -20 -19 -11 4 -14 1 -11
-8 3 -9 18 -14 44 -13 21 1 31 0 22 -3 -21 -5 -19 -66 2 -86 10 -10 12 -9 7 5
-3 10 -2 20 4 23 5 4 2 13 -7 22 -15 15 -15 17 5 25 19 7 28 37 22 71 -1 5 3
6 8 3 13 -8 7 -43 -30 -190 -5 -22 -8 -45 -5 -53 3 -7 -1 -13 -9 -13 -8 0 -15
-4 -15 -10 0 -5 -5 -10 -11 -10 -5 0 -7 5 -4 10 3 6 -1 10 -9 10 -10 0 -13 -6
-9 -18 4 -11 -1 -8 -15 8 l-22 25 5 -30 6 -30 -15 26 c-9 15 -26 29 -39 31
-22 4 -24 2 -22 -34 3 -48 -20 -52 -40 -6 -17 42 -34 158 -23 158 4 0 8 -5 8
-12 0 -6 3 -9 6 -5 3 3 -6 25 -21 49 -24 38 -26 35 -8 -10 3 -6 1 -12 -5 -12
-7 0 -7 -10 -2 -28 24 -79 38 -158 29 -166 -5 -6 -9 -18 -9 -28 0 -22 -42 -25
-60 -3 -7 8 -17 12 -23 8 -6 -4 -8 0 -4 10 4 11 1 17 -7 17 -7 0 -12 -10 -12
-22 1 -13 -4 -22 -12 -20 -6 1 -12 -5 -12 -13 0 -13 13 -15 72 -13 72 3 73 3
78 33 5 25 7 27 13 11 5 -13 14 -17 32 -14 26 5 37 -16 13 -25 -7 -2 47 -5
120 -6 112 -1 132 1 132 14 0 20 17 19 29 -2 9 -17 11 -16 26 5 9 12 21 20 26
17 5 -4 9 -1 9 5 0 6 4 9 9 5 5 -3 12 -1 16 5 4 7 13 7 26 0 20 -11 39 -6 39
10 0 5 -8 7 -17 4 -14 -5 -15 -4 -4 4 10 7 22 7 39 -1 22 -10 28 -7 71 40 42
47 108 91 145 97 8 1 21 8 30 15 11 9 16 10 16 2 0 -6 5 -11 11 -11 5 0 8 4 4
9 -3 5 -1 12 5 16 5 3 10 0 10 -8 0 -9 13 -13 40 -14 22 0 40 3 40 8 0 5 3 8
8 8 25 -4 42 2 37 14 -4 6 0 4 8 -5 16 -20 37 -24 37 -8 0 6 3 9 8 8 14 -4 52
23 52 38 0 8 5 12 11 8 6 -3 9 -14 6 -23 -3 -11 2 -17 15 -17 12 0 17 5 13 14
-3 8 3 20 12 27 10 8 14 17 9 22 -5 4 -11 2 -13 -4 -3 -7 -12 -13 -20 -13 -11
0 -14 6 -9 22 3 13 6 28 6 33 0 6 4 4 8 -3 6 -8 16 -10 28 -5 17 6 17 8 -6 13
-31 8 -50 2 -50 -16 0 -12 -26 -19 -52 -15 -5 0 -8 -2 -8 -6 0 -5 -4 -14 -9
-22 -8 -12 -12 -12 -25 -2 -23 19 -20 31 9 31 14 0 25 5 25 11 0 5 5 7 12 3 8
-5 9 -2 3 12 -5 10 -9 29 -9 41 -1 19 -6 21 -41 19 -52 -4 -67 -8 -83 -24 -12
-10 -17 -10 -28 5 -16 22 -18 43 -3 43 5 0 7 5 3 12 -5 8 0 9 14 6 19 -5 21
-3 16 20 -4 15 -11 32 -16 39 -5 6 -11 23 -14 37 -3 19 -1 24 10 20 22 -9 39
5 27 20 -6 7 -8 16 -5 19 11 11 52 -47 49 -70 -1 -12 2 -20 7 -17 5 3 7 13 4
23 -4 9 3 5 14 -9 l20 -25 -26 -23 c-16 -14 -33 -21 -43 -17 -12 5 -13 3 -5
-5 9 -9 22 -6 52 11 48 28 50 57 9 89 -15 12 -27 28 -27 36 0 8 -4 13 -9 10
-5 -3 -12 1 -15 10 -4 10 -2 13 6 8 7 -4 8 -3 4 5 -4 6 -3 18 3 25 7 8 11 31
11 52 -1 55 10 116 25 134 6 8 16 24 20 35 8 19 9 19 12 -3 5 -24 18 -29 26
-9 4 7 6 6 6 -4 1 -9 -8 -19 -20 -22 -12 -3 -18 -10 -15 -15 9 -15 77 20 71
36 -4 10 0 12 11 8 8 -3 19 -6 24 -6 4 0 10 -8 12 -18 3 -10 16 -18 32 -20 16
-1 25 2 21 8 -3 6 1 10 10 10 8 0 18 -6 21 -14 3 -8 13 -12 23 -9 9 2 23 -3
30 -11 8 -9 23 -16 35 -16 15 1 6 9 -28 26 -32 17 -45 29 -37 34 10 5 9 9 -3
13 -9 4 -16 2 -16 -4 0 -6 -6 -6 -19 0 -10 6 -20 9 -22 6 -2 -2 -5 8 -5 21 -2
25 -1 25 18 7 19 -17 19 -17 7 12 -7 17 -18 36 -23 44 -9 12 -7 13 12 9 12 -4
22 -3 22 2 0 4 11 11 25 14 14 4 23 11 20 16 -4 6 -15 4 -27 -5 -20 -13 -23
-12 -44 18 -17 25 -20 37 -12 57 9 24 9 24 -11 5 -28 -24 -27 -5 1 31 25 31
32 54 16 54 -6 0 -8 9 -5 21 3 12 0 22 -8 25 -8 3 -11 12 -8 20 4 10 9 12 16
5 6 -6 15 -5 25 5 8 8 20 13 27 10 7 -2 20 3 29 13 14 15 14 17 -5 18 -10 1
-17 -2 -14 -8 4 -5 0 -9 -7 -9 -7 0 -24 -3 -37 -7 -20 -5 -23 -3 -18 10 4 10
2 17 -2 17 -5 0 -11 -7 -15 -15 -3 -8 -10 -15 -15 -15 -6 0 -8 7 -5 15 4 8 1
15 -5 15 -6 0 -11 5 -11 11 0 7 -10 20 -22 31 -16 13 -22 29 -21 51 1 18 -1
24 -3 15 -5 -16 -78 -38 -128 -38 -20 0 -26 -8 -35 -45 -10 -39 -9 -49 5 -68
l16 -22 -7 24 c-5 16 -4 21 4 17 7 -4 11 1 11 13 0 12 10 31 22 43 l21 21 -7
-33 c-10 -50 -39 -111 -50 -107 -6 2 -16 13 -22 25 -6 12 -14 19 -17 15 -13
-12 -7 34 8 70 8 20 15 47 15 61 0 14 4 27 9 30 5 4 7 -3 4 -13 -5 -19 -3 -19
55 -4 l60 15 -5 36 c-2 21 -7 44 -10 52 -11 28 -11 40 0 40 6 0 2 6 -9 14 -18
14 -18 15 9 21 23 6 28 12 24 31 -2 13 1 25 6 27 12 4 -10 67 -27 79 -17 12
-27 9 -24 -5 6 -27 -12 -20 -34 13 -24 35 -39 42 -46 21 -2 -6 3 -8 12 -5 9 3
16 1 16 -6 0 -6 -4 -8 -10 -5 -5 3 -10 0 -10 -7 0 -7 -7 -2 -16 10 -8 12 -12
27 -9 32 3 6 -5 10 -19 10 -15 0 -33 11 -45 26 -12 15 -21 21 -21 13 0 -12 -2
-12 -9 0 -5 7 -6 22 -4 32 4 15 1 18 -11 13 -20 -8 -20 -7 4 -46 27 -44 27
-62 0 -48 -17 9 -51 66 -73 123 -6 15 -3 15 29 -1 28 -13 37 -14 43 -3 6 10
11 9 24 -4 15 -15 19 -14 43 2 27 17 27 17 60 -21 19 -21 31 -43 28 -47 -3 -5
0 -9 6 -9 6 0 9 -4 6 -8 -4 -7 28 -52 37 -52 1 0 2 11 2 25 0 14 -4 23 -10 22
-5 -2 -21 14 -34 36 l-24 40 26 22 c15 11 27 28 27 38 0 9 5 17 10 17 6 0 5 8
-2 19 -12 19 -12 19 -27 1 -9 -10 -23 -28 -31 -39 -8 -12 -18 -21 -22 -21 -14
0 -8 21 17 58 27 39 32 58 14 46 -6 -3 -15 0 -20 7 -11 18 -11 32 0 25 5 -4 4
7 -1 22 -12 31 -4 67 12 57 5 -3 10 -1 10 4 0 6 -4 11 -10 11 -5 0 -10 5 -10
11 0 6 6 9 13 6 8 -3 20 -1 28 4 11 7 9 9 -8 9 -13 0 -23 5 -23 12 0 6 -6 3
-14 -8 -10 -13 -11 -23 -4 -31 8 -10 6 -13 -6 -13 -9 0 -16 -6 -16 -12 0 -9
-3 -10 -8 -2 -12 19 -108 12 -96 -7 3 -5 0 -9 -5 -9 -6 0 -11 4 -11 9 0 4 -22
6 -48 3 -39 -3 -49 -1 -49 11 0 9 6 13 15 9 11 -4 13 -1 7 7 -6 10 -3 11 15 1
12 -6 23 -10 26 -8 7 8 -27 48 -42 48 -8 0 -14 4 -14 8 0 5 7 9 15 9 8 0 15
-4 15 -9 0 -4 5 -8 12 -8 6 0 19 -7 28 -15 20 -18 60 -28 60 -14 0 5 5 9 11 9
5 0 7 -4 4 -10 -3 -5 1 -10 10 -10 9 0 13 4 10 10 -4 7 2 7 18 1 22 -9 27 -6
40 21 14 29 13 33 -4 52 -17 17 -17 21 -4 29 8 4 20 5 26 1 8 -4 9 1 4 15 -6
21 -5 21 31 -4 21 -14 44 -23 52 -20 7 3 19 5 24 5 21 0 -3 14 -30 18 -36 5
-42 12 -9 12 38 0 57 -10 57 -31 0 -10 -3 -18 -7 -18 -5 1 -16 1 -26 0 -17 -1
-17 -2 0 -33 23 -41 29 -46 57 -41 18 4 21 10 18 39 -3 21 -10 34 -19 34 -8 0
-12 4 -8 10 14 23 -8 59 -43 71 -21 6 -44 17 -52 24 -41 34 -100 36 -106 3 -2
-7 -6 -24 -9 -38 -4 -14 -8 -33 -8 -42 -1 -9 -5 -14 -9 -12 -4 3 -8 -4 -8 -15
0 -25 -20 -28 -20 -3 -1 15 -2 15 -16 -3 -13 -17 -16 -18 -24 -5 -6 10 -12 11
-19 5 -6 -7 -5 -17 5 -29 8 -11 14 -14 14 -7 0 7 5 9 11 5 8 -4 7 -9 -2 -15
-8 -5 -20 -2 -30 7 -8 8 -19 11 -24 7 -4 -5 -5 0 -2 10 4 11 3 16 -3 12 -5 -3
-7 0 -4 8 3 8 -1 17 -9 20 -11 4 -13 0 -10 -14 4 -14 1 -18 -9 -14 -22 9 -44
-21 -28 -39 10 -13 8 -13 -14 -3 -22 10 -23 14 -10 28 18 20 18 29 1 29 -18 0
-40 47 -27 55 6 4 10 -1 10 -9 0 -10 6 -13 15 -10 8 4 15 15 15 26 0 10 5 16
10 13 6 -3 10 -1 10 5 0 6 5 8 13 4 8 -5 7 -2 -2 9 -18 22 -12 27 17 16 17 -7
22 -14 17 -29 -3 -11 -1 -28 5 -37 11 -16 11 -16 6 2 -6 19 -5 19 8 3 15 -21
28 -23 25 -5 -2 6 6 29 16 50 16 32 17 40 5 47 -7 4 -23 4 -36 0 -15 -6 -24
-5 -28 3 -3 9 -8 8 -16 -3 -9 -11 -13 -12 -17 -2 -2 6 -14 12 -26 12 -11 0
-17 3 -14 7 7 6 64 6 120 -1 35 -4 45 15 27 52 -8 15 -14 36 -14 46 -2 34 -26
31 -26 -4 0 -18 -4 -29 -10 -25 -6 4 -8 10 -5 15 3 4 -3 6 -14 3 -13 -3 -17
-11 -14 -26 4 -18 1 -16 -16 8 -21 31 -29 28 -11 -4 8 -16 5 -17 -18 -14 -26
4 -26 4 -8 -11 19 -16 19 -16 -1 -16 -31 0 -36 14 -12 36 l21 19 -22 5 c-26 6
-26 26 0 22 14 -2 18 1 14 11 -3 9 -17 14 -34 13 -16 -1 -31 3 -34 10 -6 15
31 26 38 10 2 -6 5 -1 5 12 1 23 -24 31 -32 10 -4 -10 -6 -10 -6 0 -1 7 6 15
14 18 20 8 19 34 -1 34 -9 0 -12 -5 -8 -12 5 -8 1 -7 -10 2 -17 13 -17 15 10
22 33 9 45 0 47 -35 2 -18 5 -22 13 -16 16 13 26 -15 11 -31 -9 -9 -8 -11 8
-8 12 2 21 -4 23 -16 2 -11 0 -16 -7 -12 -7 4 -9 1 -5 -8 3 -8 12 -12 20 -9
17 6 17 5 5 37 -8 19 -6 28 6 38 9 7 14 8 10 2 -4 -7 0 -15 9 -18 30 -11 35
-6 14 16 -11 12 -18 28 -16 35 4 9 -6 13 -32 14 l-37 1 35 8 c19 5 38 6 42 4
4 -3 15 -1 24 4 11 6 -24 9 -99 10 l-115 1 4 -57 c3 -31 5 -61 5 -67 1 -31
-10 -88 -20 -98 -8 -8 -11 -8 -11 2 0 8 -7 10 -21 6 -17 -6 -20 -3 -17 17 2
17 -2 23 -17 23 -18 0 -20 8 -23 78 -2 50 0 77 7 77 10 0 15 -36 15 -108 -1
-31 19 -41 22 -11 1 8 3 19 4 24 1 6 1 21 0 34 -1 14 2 21 9 17 6 -4 11 -28
11 -53 0 -63 6 -51 13 25 5 58 4 62 -16 62 -22 1 -22 1 -3 15 19 14 18 15 -11
15 -18 0 -43 -4 -57 -10 -17 -6 -26 -6 -26 0 0 6 -9 10 -21 10 -11 0 -17 -4
-14 -10 3 -5 2 -10 -4 -10 -5 0 -11 6 -14 13 -3 8 -10 6 -21 -8 -12 -16 -15
-17 -16 -4 0 10 -11 15 -36 16 -26 1 -34 -2 -30 -13 7 -19 -4 -18 -20 4 -13
16 -14 16 -8 0 3 -10 1 -18 -5 -18 -6 0 -11 7 -11 15 0 12 -27 14 -160 14
-135 1 -160 -2 -160 -14z m234 -10 c3 -8 1 -15 -4 -15 -6 0 -10 7 -10 15 0 8
2 15 4 15 2 0 6 -7 10 -15z m33 -7 c-3 -8 -6 -5 -6 6 -1 11 2 17 5 13 3 -3 4
-12 1 -19z m-200 -5 c0 -18 -29 -26 -39 -11 -6 10 -10 10 -18 -2 -8 -13 -10
-13 -10 2 0 18 11 24 45 24 12 0 22 -6 22 -13z m121 -2 c3 -8 -1 -12 -9 -9 -7
2 -15 10 -17 17 -3 8 1 12 9 9 7 -2 15 -10 17 -17z m19 -3 c-3 -8 -6 -5 -6 6
-1 11 2 17 5 13 3 -3 4 -12 1 -19z m213 -4 c0 -8 -4 -12 -10 -9 -5 3 -10 10
-10 16 0 5 5 9 10 9 6 0 10 -7 10 -16z m-76 -19 c-4 -8 -8 -15 -10 -15 -2 0
-4 7 -4 15 0 8 4 15 10 15 5 0 7 -7 4 -15z m-64 -33 c0 -7 -4 -10 -10 -7 -5 3
-10 16 -10 28 0 18 2 19 10 7 5 -8 10 -21 10 -28z m89 1 c0 -16 -3 -22 -6 -15
-2 6 -9 12 -14 12 -6 0 -7 -4 -4 -10 3 -5 1 -10 -4 -10 -15 0 -14 18 2 35 19
22 27 18 26 -12z m51 -3 c0 -5 -5 -10 -11 -10 -5 0 -7 5 -4 10 3 6 8 10 11 10
2 0 4 -4 4 -10z m278 -89 c2 -27 -12 -50 -24 -39 -6 7 7 68 15 68 4 0 8 -13 9
-29z m-284 1 c3 -5 -1 -9 -9 -9 -8 0 -12 4 -9 9 3 4 7 8 9 8 2 0 6 -4 9 -8z
m426 -42 c0 -5 -4 -10 -10 -10 -5 0 -10 5 -10 10 0 6 5 10 10 10 6 0 10 -4 10
-10z m-240 -20 c0 -5 -7 -10 -15 -10 -8 0 -15 5 -15 10 0 6 7 10 15 10 8 0 15
-4 15 -10z m40 0 c0 -5 -7 -10 -15 -10 -8 0 -15 5 -15 10 0 6 7 10 15 10 8 0
15 -4 15 -10z m-249 -23 c-13 -13 -26 -3 -16 12 3 6 11 8 17 5 6 -4 6 -10 -1
-17z m129 13 c0 -5 -2 -10 -4 -10 -3 0 -8 5 -11 10 -3 6 -1 10 4 10 6 0 11 -4
11 -10z m160 0 c0 -5 -4 -10 -10 -10 -5 0 -10 5 -10 10 0 6 5 10 10 10 6 0 10
-4 10 -10z m43 3 c-7 -2 -19 -2 -25 0 -7 3 -2 5 12 5 14 0 19 -2 13 -5z m-388
-33 c3 -5 -1 -10 -10 -10 -9 0 -13 5 -10 10 3 6 8 10 10 10 2 0 7 -4 10 -10z
m-285 -41 c0 -4 -4 -11 -10 -14 -5 -3 -10 -1 -10 4 0 6 -7 11 -16 11 -8 0 -13
4 -10 9 7 11 46 2 46 -10z m520 1 c0 -5 -2 -10 -4 -10 -3 0 -8 5 -11 10 -3 6
-1 10 4 10 6 0 11 -4 11 -10z m-212 -7 c-10 -2 -26 -2 -35 0 -10 3 -2 5 17 5
19 0 27 -2 18 -5z m276 -59 c3 -9 11 -12 18 -8 9 5 9 3 -1 -9 -11 -13 -11 -17
-1 -17 8 0 10 -3 6 -7 -7 -7 -45 34 -46 50 0 13 18 7 24 -9z m56 -5 c0 -6 -4
-7 -10 -4 -5 3 -10 11 -10 16 0 6 5 7 10 4 6 -3 10 -11 10 -16z m257 -56 c3
-7 -3 -9 -17 -6 -28 8 -34 20 -8 19 12 0 23 -6 25 -13z m38 -1 c-3 -3 -11 0
-18 7 -9 10 -8 11 6 5 10 -3 15 -9 12 -12z m-277 -10 c7 -5 10 -16 6 -25 -9
-24 -27 -21 -21 4 4 15 2 19 -9 15 -9 -3 -12 -1 -9 4 7 12 16 12 33 2z m32
-37 c-7 -8 -9 -18 -6 -23 3 -6 -3 -12 -13 -15 -19 -5 -19 -3 -3 28 9 18 21 31
25 28 4 -3 3 -11 -3 -18z m240 -105 c0 -5 -2 -10 -4 -10 -3 0 -8 5 -11 10 -3
6 -1 10 4 10 6 0 11 -4 11 -10z m-210 -10 c0 -5 -8 -10 -17 -10 -15 0 -16 2
-3 10 19 12 20 12 20 0z m-15 -70 c3 -5 2 -10 -4 -10 -5 0 -13 5 -16 10 -3 6
-2 10 4 10 5 0 13 -4 16 -10z m-413 -147 c-6 -3 -9 -10 -6 -16 4 -7 1 -7 -7 1
-12 11 -12 14 1 22 8 5 17 6 20 3 3 -3 -1 -8 -8 -10z m138 2 c0 -8 -4 -15 -8
-15 -5 0 -9 7 -9 15 0 8 4 15 9 15 4 0 8 -7 8 -15z m450 -30 c0 -5 -5 -3 -10
5 -5 8 -10 20 -10 25 0 6 5 3 10 -5 5 -8 10 -19 10 -25z m-840 -57 c0 -6 -6
-6 -16 3 -13 10 -17 10 -24 -1 -5 -8 -12 -11 -15 -8 -4 4 -1 13 6 21 15 16 49
6 49 -15z m833 -18 c-1 -19 1 -25 4 -12 4 19 25 34 22 15 -1 -5 -1 -10 1 -13
1 -3 4 -16 6 -30 2 -13 9 -27 15 -30 6 -4 6 -15 0 -31 -9 -23 -9 -23 -17 -4
-4 11 -18 28 -31 38 -18 15 -22 26 -19 57 2 23 -1 41 -7 44 -7 3 -3 5 8 3 16
-2 20 -9 18 -37z m-565 11 c-9 -15 -9 -23 0 -34 7 -8 10 -21 7 -30 -5 -11 -14
-13 -42 -7 -19 5 -41 6 -48 4 -7 -3 -16 0 -21 7 -4 8 -3 10 4 5 7 -4 12 -2 12
3 0 6 -7 11 -15 11 -8 0 -15 3 -15 6 0 13 22 44 31 44 6 0 8 -4 5 -8 -3 -5 11
-8 31 -7 21 2 39 8 41 14 2 6 8 11 13 11 5 0 4 -9 -3 -19z m67 -5 c17 -17 1
-36 -32 -36 -17 0 -23 6 -23 22 0 20 1 21 20 3 19 -17 20 -17 20 -1 0 9 -4 14
-10 11 -5 -3 -10 -1 -10 4 0 15 19 14 35 -3z m605 -28 c1 -13 7 -36 15 -53 12
-27 13 -28 14 -7 1 12 5 22 10 22 11 0 20 -111 11 -123 -4 -4 -7 6 -8 24 0 17
-6 37 -13 43 -9 8 -10 7 -6 -7 6 -16 4 -16 -23 3 -17 12 -30 25 -30 29 0 5 -3
24 -7 42 -6 30 -5 33 10 21 13 -11 15 -10 10 7 -3 12 -1 21 6 21 6 0 11 -10
11 -22z m-804 -5 c-3 -4 1 -15 11 -25 21 -23 10 -36 -12 -14 -22 22 -28 20
-15 -4 6 -11 9 -20 6 -20 -2 0 -11 -3 -20 -6 -12 -5 -16 0 -16 17 0 19 -2 21
-10 9 -8 -12 -10 -12 -10 5 0 17 -2 17 -10 5 -8 -13 -10 -13 -10 2 0 9 7 21
16 26 18 10 79 14 70 5z m838 -9 c4 -10 1 -14 -6 -12 -15 5 -23 28 -10 28 5 0
13 -7 16 -16z m53 -29 c8 -26 8 -35 0 -35 -7 0 -17 16 -23 35 -8 26 -8 35 1
35 6 0 16 -16 22 -35z m-637 15 c0 -5 -4 -10 -10 -10 -5 0 -10 5 -10 10 0 6 5
10 10 10 6 0 10 -4 10 -10z m354 -6 c3 -8 2 -12 -4 -9 -6 3 -10 10 -10 16 0
14 7 11 14 -7z m-492 -86 c-2 -10 -8 -15 -13 -12 -5 3 -9 -1 -10 -8 0 -9 -2
-10 -5 -1 -3 7 -12 9 -20 6 -8 -3 -14 0 -14 5 0 6 9 13 19 17 13 4 17 12 13
27 -5 21 -5 21 15 2 10 -10 17 -27 15 -36z m551 -11 c-2 -4 -10 -4 -16 -1 -8
5 -8 3 1 -7 6 -7 12 -22 13 -33 0 -21 0 -21 9 -1 9 20 9 20 9 0 1 -11 -3 -34
-8 -51 -5 -18 -5 -37 0 -45 7 -11 9 -9 9 7 0 12 6 26 13 32 10 8 13 6 13 -9 0
-10 -3 -19 -7 -19 -11 0 -18 -40 -7 -46 6 -4 6 -10 -1 -17 -7 -7 -20 -1 -42
18 -18 15 -44 31 -57 36 -23 9 -23 10 -8 34 23 35 43 98 42 133 l-1 31 22 -27
c11 -15 19 -30 16 -35z m151 7 c9 -24 7 -28 -9 -14 -13 11 -14 10 -9 -4 3 -9
10 -16 15 -16 5 0 9 -5 9 -12 0 -7 -9 -4 -20 8 -13 12 -18 27 -14 37 8 21 20
22 28 1z m-917 -45 c-1 -15 -6 -25 -12 -22 -5 3 -5 0 2 -7 13 -14 6 -43 -8
-34 -5 3 -9 17 -10 32 0 24 -1 25 -9 7 -7 -17 -9 -17 -9 -2 -1 9 -5 17 -11 17
-18 0 -10 17 12 27 36 16 47 12 45 -18z m121 -24 c-3 -3 -9 2 -12 12 -6 14 -5
15 5 6 7 -7 10 -15 7 -18z m692 -1 c0 -8 -4 -12 -10 -9 -5 3 -10 10 -10 16 0
5 5 9 10 9 6 0 10 -7 10 -16z m43 -21 c6 -33 3 -42 -25 -68 -23 -23 -29 -25
-23 -10 4 11 8 33 10 48 1 16 8 32 15 37 7 4 9 13 6 19 -4 6 -3 11 2 11 5 0
12 -17 15 -37z m-773 15 c0 -4 -7 -8 -15 -8 -8 0 -15 4 -15 8 0 5 7 9 15 9 8
0 15 -4 15 -9z m261 -2 c5 3 9 -1 9 -9 0 -9 -12 -14 -35 -15 -21 -1 -33 3 -30
8 3 6 13 10 21 10 8 0 14 6 15 13 0 9 2 9 6 -1 2 -6 9 -10 14 -6z m266 -32
c26 -15 50 -31 53 -34 3 -3 25 -18 50 -32 92 -53 137 -123 105 -163 -16 -20
-16 -20 -12 3 7 31 -6 27 -27 -9 -15 -26 -16 -33 -5 -41 10 -7 9 -8 -6 -4 -30
8 -68 -28 -60 -56 6 -22 5 -22 -9 -5 -12 15 -18 17 -36 7 -12 -6 -24 -9 -28
-6 -3 3 -16 -1 -29 -9 -53 -35 -39 1 24 62 37 36 57 57 43 47 -14 -11 -31 -27
-38 -37 -17 -22 -70 -50 -81 -42 -5 3 -12 -1 -14 -7 -3 -8 -6 -6 -6 5 -1 9 -8
17 -16 17 -18 0 -19 9 -5 44 12 32 48 31 71 -1 l15 -22 17 20 c17 20 14 45 -4
34 -5 -3 -6 2 -2 12 5 15 3 16 -8 6 -25 -24 -28 -13 -6 21 12 18 24 32 27 31
3 -2 6 8 6 21 1 14 -2 21 -8 18 -6 -4 -8 2 -3 17 7 23 7 24 -9 4 -18 -24 -21
-39 -4 -29 8 5 9 2 5 -10 -4 -10 -7 -22 -7 -27 0 -4 -6 -6 -13 -3 -14 5 -16
62 -2 84 5 8 4 11 -3 6 -6 -3 -16 2 -21 13 -6 11 -31 27 -56 36 -25 10 -45 22
-45 26 0 13 14 11 28 -3 8 -8 12 -8 12 -1 0 6 11 11 24 11 17 0 23 -5 19 -15
-3 -8 0 -13 8 -11 8 2 13 -3 12 -9 -4 -16 9 -17 25 -1 19 19 15 24 -38 47 -27
12 -50 23 -50 26 0 9 61 -15 107 -41z m-476 11 c5 4 6 -1 3 -10 -4 -9 -13 -14
-20 -11 -7 3 -16 1 -19 -4 -9 -15 -25 -12 -25 5 0 8 9 15 20 15 11 0 20 6 21
13 0 9 2 9 6 -1 2 -6 9 -10 14 -7z m99 5 c-8 -5 -24 -10 -35 -10 -17 0 -17 2
-5 10 8 5 24 10 35 10 17 0 17 -2 5 -10z m166 -18 c-6 -20 29 -66 44 -57 5 3
7 0 4 -9 -5 -13 -43 -19 -42 -6 2 21 -5 27 -22 23 -15 -4 -20 -1 -19 13 0 11
3 14 6 7 8 -21 18 -15 18 11 0 15 -5 22 -12 19 -7 -3 -13 -1 -13 5 0 12 21 21
33 15 4 -3 6 -12 3 -21z m54 8 c0 -5 -9 -10 -20 -10 -11 0 -20 5 -20 10 0 6 9
10 20 10 11 0 20 -4 20 -10z m-265 -50 c-3 -5 -12 -10 -18 -10 -7 0 -6 4 3 10
19 12 23 12 15 0z m662 -42 c-13 -55 -13 -55 -37 -33 l-20 18 27 29 c37 38 43
35 30 -14z m-797 -4 c0 -24 -17 -15 -22 11 -4 20 -3 23 8 14 8 -6 14 -18 14
-25z m17 14 c-3 -8 -6 -5 -6 6 -1 11 2 17 5 13 3 -3 4 -12 1 -19z m32 -23 c0
-5 -4 -3 -9 5 -5 8 -9 22 -9 30 0 16 17 -16 18 -35z m395 10 c-4 -8 -11 -12
-17 -8 -8 5 -7 8 1 11 7 2 9 9 6 14 -4 7 -2 8 4 4 6 -4 9 -13 6 -21z m66 -30
c20 -24 6 -28 -15 -5 -10 11 -13 20 -8 20 6 0 16 -7 23 -15z m446 -12 c-10
-10 -19 5 -10 18 6 11 8 11 12 0 2 -7 1 -15 -2 -18z m-996 -18 c5 -6 -1 -10
-16 -10 -28 0 -28 -1 -12 25 9 13 14 16 17 8 2 -7 7 -17 11 -23z m967 -14 c9
9 13 8 13 0 0 -16 -30 -74 -43 -83 -6 -3 -11 -16 -12 -27 -3 -34 29 -25 74 21
44 44 55 41 17 -6 -15 -18 -22 -36 -18 -50 5 -19 4 -19 -11 -7 -9 7 -17 9 -17
5 0 -5 -10 -15 -21 -23 -20 -12 -21 -11 -16 8 3 13 0 21 -8 21 -25 0 -24 29 1
75 22 39 24 48 13 63 -11 14 -11 15 1 5 10 -9 17 -10 27 -2z m-40 -33 c-3 -8
-6 -5 -6 6 -1 11 2 17 5 13 3 -3 4 -12 1 -19z m-63 -50 c27 -48 46 -104 26
-78 -9 11 -13 12 -17 3 -2 -7 -9 -13 -15 -13 -6 0 -3 11 5 24 14 20 14 26 2
42 -8 11 -15 14 -15 7 0 -13 -90 -106 -117 -122 -12 -6 -17 -20 -16 -43 1 -30
1 -31 -7 -8 -14 44 -11 54 26 78 26 17 35 29 31 43 -3 10 -1 19 3 19 4 0 20
20 34 45 15 25 29 45 31 45 2 0 15 -19 29 -42z m256 28 c0 -3 -4 -8 -10 -11
-5 -3 -10 -1 -10 4 0 6 5 11 10 11 6 0 10 -2 10 -4z m-1190 -41 c5 3 11 2 14
-3 2 -4 -8 -13 -23 -19 -27 -10 -27 -9 -17 13 6 13 13 19 14 14 2 -6 8 -8 12
-5z m580 -80 c0 -8 -7 -15 -15 -15 -13 0 -14 3 -3 15 16 18 18 18 18 0z m470
-14 c0 -5 -9 -11 -21 -14 -16 -4 -18 -3 -8 9 13 16 29 19 29 5z m-510 -5 c0
-3 -4 -8 -10 -11 -5 -3 -10 -1 -10 4 0 6 5 11 10 11 6 0 10 -2 10 -4z m70 -6
c0 -5 -5 -10 -11 -10 -5 0 -7 5 -4 10 3 6 8 10 11 10 2 0 4 -4 4 -10z m574
-40 c9 -17 14 -30 11 -30 -10 0 -55 48 -55 59 0 18 26 1 44 -29z m-1001 -13
c-3 -5 -9 -3 -14 4 -4 7 -5 17 -2 22 3 5 9 3 14 -4 4 -7 5 -17 2 -22z m-36 3
c-1 -21 -27 -37 -27 -17 0 8 -4 6 -10 -3 -8 -12 -10 -11 -10 7 0 15 5 21 14
17 8 -3 17 -1 21 5 10 16 14 13 12 -9z m470 -2 c-2 -7 0 -23 4 -35 6 -17 5
-23 -6 -23 -15 0 -20 26 -9 54 7 19 18 22 11 4z m53 -33 c11 -13 10 -14 -4 -9
-9 3 -16 10 -16 15 0 13 6 11 20 -6z m245 -38 c4 5 5 1 3 -7 -3 -8 5 -29 18
-47 22 -29 23 -33 7 -48 -9 -9 -24 -14 -34 -12 -11 3 -19 1 -19 -4 0 -18 -15
-8 -31 19 l-16 29 38 -19 c49 -23 49 -23 36 12 -6 17 -15 30 -20 30 -4 0 -5 4
-2 10 3 5 -2 22 -12 37 -17 28 -17 28 3 10 11 -9 24 -14 29 -10z m100 -7 c3
-5 1 -10 -4 -10 -6 0 -11 5 -11 10 0 6 2 10 4 10 3 0 8 -4 11 -10z m152 -6
c-3 -3 -12 -4 -19 -1 -8 3 -5 6 6 6 11 1 17 -2 13 -5z m-936 -47 c-7 -7 -7
-14 0 -23 15 -18 -3 -24 -24 -9 -18 13 -18 14 3 25 15 8 19 17 15 33 -5 20 -5
20 6 4 8 -14 8 -22 0 -30z m844 33 c-3 -5 -12 -10 -18 -10 -7 0 -6 4 3 10 19
12 23 12 15 0z m-991 -62 c-4 -57 -3 -55 -14 -37 -8 14 4 79 15 79 1 0 1 -19
-1 -42z m386 -1 c0 -14 -6 -24 -15 -24 -18 0 -18 2 -5 28 14 25 20 24 20 -4z
m-305 -9 c-4 -13 -7 -31 -8 -40 -1 -10 -5 -18 -9 -18 -4 0 -4 -7 -1 -17 4 -11
3 -14 -5 -9 -18 11 -15 66 4 73 8 3 13 12 10 19 -3 8 0 14 5 14 7 0 9 -9 4
-22z m-138 -24 c-3 -3 -12 -4 -19 -1 -8 3 -5 6 6 6 11 1 17 -2 13 -5z m514
-41 c-8 -15 -10 -15 -11 -2 0 17 10 32 18 25 2 -3 -1 -13 -7 -23z m-441 -35
c0 -19 -2 -20 -10 -8 -13 19 -13 30 0 30 6 0 10 -10 10 -22z m662 -140 c-7 -7
-12 -8 -12 -2 0 14 12 26 19 19 2 -3 -1 -11 -7 -17z m-368 -63 c3 -8 1 -15 -4
-15 -6 0 -10 7 -10 15 0 8 2 15 4 15 2 0 6 -7 10 -15z m511 -45 c3 -5 2 -10
-4 -10 -5 0 -13 5 -16 10 -3 6 -2 10 4 10 5 0 13 -4 16 -10z m-595 -60 c0 -5
-2 -10 -4 -10 -2 0 -12 -3 -22 -7 -16 -6 -17 -5 -4 10 17 19 30 22 30 7z
m-162 -326 c-3 -14 -5 -12 -10 9 -3 19 -2 25 4 19 6 -6 8 -18 6 -28z m142 -8
c0 -3 -4 -8 -10 -11 -5 -3 -10 -1 -10 4 0 6 5 11 10 11 6 0 10 -2 10 -4z m-50
-28 c0 -4 -4 -8 -9 -8 -6 0 -12 4 -15 8 -3 5 1 9 9 9 8 0 15 -4 15 -9z"/>
<path d="M891 1394 c0 -11 3 -14 6 -6 3 7 2 16 -1 19 -3 4 -6 -2 -5 -13z"/>
<path d="M760 1360 c-11 -7 -11 -10 -2 -10 8 0 10 -5 6 -12 -5 -10 -4 -10 6
-1 17 16 9 35 -10 23z"/>
<path d="M792 1328 c-14 -14 -16 -28 -3 -28 5 0 11 9 14 20 6 23 5 24 -11 8z"/>
<path d="M836 1264 c-4 -9 -4 -19 -1 -22 2 -3 7 3 11 12 4 9 4 19 1 22 -2 3
-7 -3 -11 -12z"/>
<path d="M802 1217 c-6 -7 -7 -19 -3 -26 6 -9 10 -6 14 10 8 28 3 34 -11 16z"/>
<path d="M854 1158 c-4 -7 -4 -10 1 -6 4 4 15 2 24 -5 14 -11 14 -10 2 6 -16
20 -18 21 -27 5z"/>
<path d="M716 1137 c3 -10 9 -15 12 -12 3 3 0 11 -7 18 -10 9 -11 8 -5 -6z"/>
<path d="M921 2582 c7 -11 17 -18 21 -16 11 7 10 -3 -2 -25 -7 -14 -4 -23 13
-39 l22 -21 2 35 c1 19 -3 34 -8 34 -6 0 -7 5 -4 10 3 6 16 8 28 6 12 -3 35
-7 50 -11 19 -4 26 -2 22 5 -3 5 -1 10 5 10 6 0 13 -7 16 -15 4 -10 14 -14 28
-10 15 5 17 4 8 -3 -12 -8 -11 -14 2 -38 8 -16 15 -24 16 -19 0 6 5 3 10 -5 8
-13 10 -12 10 4 0 14 5 17 25 12 32 -8 31 -3 -5 34 l-30 30 28 -6 c15 -4 32
-12 37 -19 8 -10 15 -9 33 5 31 25 28 31 -15 26 -21 -2 -62 0 -93 5 -30 5 -84
10 -120 12 -36 2 -76 7 -88 12 -22 7 -23 6 -11 -13z"/>
<path d="M1470 2592 c0 -13 25 -22 57 -22 15 0 23 5 21 12 -5 15 -78 24 -78
10z"/>
<path d="M2012 2580 c7 -11 16 -20 20 -20 5 0 8 -5 8 -10 0 -6 9 -21 20 -33
17 -17 23 -19 29 -8 6 10 10 10 16 1 4 -6 13 -9 20 -6 7 2 16 -2 19 -10 3 -9
10 -12 16 -9 5 3 10 1 10 -6 0 -7 3 -9 6 -6 4 4 -1 18 -10 31 -21 32 -21 42 1
25 9 -8 17 -13 17 -11 1 2 13 -1 28 -7 15 -6 34 -8 41 -5 7 2 22 -4 32 -16 10
-11 22 -20 27 -20 16 0 7 23 -17 42 -25 20 -36 56 -12 41 6 -4 14 -8 17 -9 18
-3 48 -20 66 -37 24 -23 70 -35 58 -15 -5 7 -2 9 7 6 37 -14 59 -19 59 -13 0
9 -27 35 -32 30 -2 -2 -4 5 -4 15 0 15 5 19 21 14 22 -7 56 -32 68 -51 4 -7
19 -13 32 -13 24 0 25 3 25 59 l0 59 -117 0 c-91 1 -112 -2 -90 -9 15 -6 27
-14 27 -19 0 -12 -37 0 -51 16 -8 10 -33 14 -78 13 -56 0 -62 -2 -41 -11 14
-6 20 -12 13 -15 -7 -2 -9 -12 -6 -21 3 -10 -9 -3 -28 16 -31 28 -41 32 -92
32 l-57 0 17 -26 c17 -27 17 -27 -5 -13 -12 8 -22 21 -22 29 0 13 -1 13 -10 0
-6 -10 -10 -11 -10 -2 0 6 -11 12 -25 12 -23 0 -24 -2 -13 -20z m568 -65 c10
-12 10 -15 -4 -15 -9 0 -16 7 -16 15 0 8 2 15 4 15 2 0 9 -7 16 -15z"/>
<path d="M1560 2580 c0 -5 5 -10 11 -10 5 0 7 5 4 10 -3 6 -8 10 -11 10 -2 0
-4 -4 -4 -10z"/>
<path d="M1620 2576 c0 -8 14 -17 30 -21 27 -6 35 -15 28 -30 -2 -2 6 -10 16
-18 27 -20 2 -33 -30 -16 -13 7 -27 9 -31 5 -10 -9 12 -42 26 -38 6 1 11 -3
11 -8 0 -6 15 -10 33 -9 45 1 80 -8 93 -26 14 -19 25 -19 18 0 -5 11 -2 13 10
9 9 -3 16 -10 16 -14 0 -4 25 -6 56 -4 33 2 53 0 49 -5 -3 -5 -1 -12 5 -16 5
-3 10 -1 10 4 0 6 5 11 11 11 5 0 8 -4 5 -9 -10 -15 38 1 50 17 9 13 12 13 17
-2 4 -9 17 -16 29 -15 l23 0 -22 9 c-22 9 -32 21 -15 19 35 -6 39 12 4 18 -96
17 -95 17 -80 -6 7 -12 14 -17 16 -11 2 5 9 10 15 10 6 0 4 -7 -5 -16 -15 -16
-18 -16 -33 0 -15 15 -30 20 -38 14 -2 -2 -11 3 -20 11 -14 11 -20 11 -34 0
-16 -13 -17 -12 -4 4 7 9 19 17 27 17 7 0 15 4 18 9 4 5 -2 7 -12 4 -11 -2
-26 3 -35 12 -9 9 -21 13 -27 10 -15 -9 -51 5 -44 17 3 5 15 7 25 5 13 -4 25
3 36 19 12 18 19 22 29 14 7 -6 12 -20 11 -30 -1 -14 -4 -16 -14 -8 -10 8 -13
7 -13 -5 0 -17 24 -29 44 -21 8 3 17 1 20 -5 11 -17 34 -1 29 20 -3 10 -9 19
-14 19 -5 0 -6 -8 -2 -17 5 -15 3 -15 -9 2 -22 27 -3 58 24 42 10 -7 16 -17
14 -24 -3 -6 2 -14 11 -17 13 -5 13 -9 2 -23 -10 -12 -10 -14 -1 -9 7 4 12 2
12 -6 0 -10 2 -10 9 1 11 17 2 51 -13 51 -6 0 -4 4 4 10 12 7 11 12 -8 28 -17
15 -35 19 -80 17 -36 -2 -56 -7 -54 -14 1 -6 -3 -11 -8 -11 -5 0 -9 -3 -7 -7
1 -5 -2 -9 -8 -10 -5 -2 -10 6 -10 18 0 24 -26 43 -37 26 -6 -9 -8 -9 -8 1 0
7 -5 10 -10 7 -8 -5 -7 -11 1 -21 6 -8 8 -14 4 -14 -4 0 -1 -8 6 -17 13 -16
12 -16 -14 0 -26 17 -28 17 -25 1 4 -21 -27 -27 -42 -9 -9 11 -6 12 12 8 18
-5 21 -3 11 7 -6 7 -9 19 -6 26 4 10 -4 14 -28 15 -19 0 -44 2 -56 5 -15 2
-23 -1 -23 -10z m197 -31 c0 -8 -4 -12 -9 -9 -4 3 -8 9 -8 15 0 5 4 9 8 9 5 0
9 -7 9 -15z m-70 -67 c-3 -8 -6 -5 -6 6 -1 11 2 17 5 13 3 -3 4 -12 1 -19z"/>
<path d="M880 2562 c0 -5 7 -15 15 -22 8 -7 15 -9 15 -6 0 4 -7 14 -15 22 -8
9 -15 11 -15 6z"/>
<path d="M1290 2554 c8 -10 19 -22 25 -26 5 -4 2 -10 -8 -14 -23 -8 -22 -21 3
-34 12 -6 20 -7 20 -1 0 5 -8 12 -17 14 -17 4 -17 5 0 6 20 1 23 21 5 39 -9 9
-8 12 4 12 9 0 27 -13 40 -28 24 -29 58 -48 58 -32 0 5 -9 12 -20 15 -11 4
-18 11 -15 16 4 5 0 10 -7 10 -7 1 1 4 17 8 41 9 98 -8 84 -25 -6 -8 -6 -14 0
-18 5 -4 12 3 16 14 3 11 12 20 18 21 38 2 -49 20 -117 25 -45 2 -90 7 -101
11 -18 5 -19 4 -5 -13z"/>
<path d="M1265 2540 c-3 -5 1 -10 9 -10 9 0 16 5 16 10 0 6 -4 10 -9 10 -6 0
-13 -4 -16 -10z"/>
<path d="M1531 2536 c2 -2 24 -6 48 -9 29 -4 40 -2 30 4 -13 8 -88 14 -78 5z"/>
<path d="M1010 2511 c0 -7 -5 -9 -12 -5 -7 5 -8 3 -3 -5 5 -9 10 -10 18 -2 6
6 8 14 4 18 -4 3 -7 1 -7 -6z"/>
<path d="M1340 2511 c0 -5 5 -13 10 -16 6 -3 10 -2 10 4 0 5 -4 13 -10 16 -5
3 -10 2 -10 -4z"/>
<path d="M1525 2510 c-3 -4 2 -11 11 -14 10 -4 14 -12 10 -22 -5 -13 -3 -14 6
-6 9 7 19 6 32 -4 27 -20 32 -18 32 12 0 22 -2 23 -12 10 -6 -9 -15 -16 -19
-16 -4 0 -2 7 5 15 7 9 11 17 9 19 -9 9 -69 14 -74 6z"/>
<path d="M121 2496 c-7 -8 -8 -17 -3 -20 6 -3 12 3 15 14 6 24 4 25 -12 6z"/>
<path d="M81 2473 c11 -13 11 -17 2 -20 -7 -3 -13 -15 -13 -28 0 -13 -5 -36
-10 -51 -6 -15 -9 -29 -6 -31 5 -5 34 -11 59 -12 24 -1 21 -31 -4 -31 -11 0
-17 -4 -14 -10 4 -6 15 -8 25 -5 10 3 21 1 25 -5 3 -6 11 -8 16 -5 5 3 6 0 3
-8 -4 -10 3 -13 25 -9 19 3 31 11 35 25 7 29 0 33 -14 8 -6 -12 -16 -21 -22
-21 -7 0 -6 5 2 15 13 15 4 19 -37 18 -7 -1 -13 5 -13 13 0 8 9 14 20 14 11 0
20 5 20 11 0 7 -10 9 -25 7 -23 -5 -25 -2 -22 29 1 22 8 35 20 39 27 9 14 29
-17 26 -20 -2 -29 3 -38 23 -6 14 -16 25 -21 25 -5 0 -3 -7 4 -17z"/>
<path d="M1515 2480 c3 -5 8 -10 11 -10 2 0 4 5 4 10 0 6 -5 10 -11 10 -5 0
-7 -4 -4 -10z"/>
<path d="M2335 2470 c3 -5 11 -10 16 -10 6 0 7 5 4 10 -3 6 -11 10 -16 10 -6
0 -7 -4 -4 -10z"/>
<path d="M949 2468 c-1 -2 -7 -37 -14 -78 -7 -41 -19 -97 -28 -123 -14 -43
-14 -49 0 -54 21 -8 40 15 57 69 13 45 13 47 -8 51 -20 4 -20 4 2 6 13 0 20 6
17 11 -3 6 -1 10 4 10 6 0 11 -4 11 -9 0 -4 27 -11 60 -15 50 -6 60 -10 60
-26 0 -14 11 -22 38 -29 20 -6 42 -11 48 -11 7 0 14 -6 17 -14 3 -7 23 -16 46
-20 22 -3 43 -11 46 -17 5 -7 -5 -8 -29 -3 l-36 6 10 -28 c6 -16 9 -39 5 -51
-4 -17 -1 -23 12 -23 13 0 14 -3 5 -12 -7 -7 -12 -28 -12 -48 0 -20 -5 -41
-10 -46 -7 -7 -5 -17 5 -30 8 -10 15 -14 15 -6 0 6 7 12 15 12 9 0 15 9 15 25
0 19 -4 23 -17 18 -10 -3 -15 -3 -11 2 4 4 18 9 31 10 23 3 24 0 21 -41 -2
-24 0 -46 5 -48 5 -3 6 -16 4 -30 -4 -17 1 -27 16 -35 24 -13 30 -54 7 -45
-18 7 -41 -32 -26 -41 6 -4 8 -10 5 -15 -3 -4 4 -6 15 -3 11 3 17 9 14 14 -3
5 0 9 5 9 6 0 11 -3 11 -8 0 -4 10 -12 23 -17 12 -6 21 -16 20 -23 -2 -7 2
-12 7 -12 7 0 10 -20 9 -50 -2 -28 2 -55 8 -61 6 -6 8 1 5 22 -5 37 16 37 33
1 5 -12 15 -20 22 -18 13 5 43 -19 43 -34 0 -5 -7 -7 -16 -3 -15 5 -15 3 1
-20 16 -25 34 -40 20 -17 -3 6 1 10 10 10 12 0 15 6 10 23 -5 13 3 7 19 -17
16 -22 25 -47 23 -60 l-4 -21 -2 21 c0 12 -8 28 -18 35 -15 13 -15 12 -2 -8
11 -18 11 -25 1 -35 -14 -14 -16 -32 -2 -23 15 10 12 -49 -5 -81 -8 -16 -15
-23 -15 -15 0 11 -3 11 -17 0 -10 -8 -14 -9 -10 -2 4 6 3 14 -2 17 -5 3 -11
-8 -13 -24 -3 -17 0 -30 5 -30 6 0 7 -3 4 -6 -4 -4 -13 -1 -22 6 -10 8 -15 9
-15 2 0 -6 9 -16 20 -22 11 -6 20 -17 20 -25 0 -18 12 -19 28 -3 8 8 10 2 6
-28 -4 -26 -16 -47 -35 -64 -30 -25 -40 -72 -18 -85 6 -5 4 -16 -7 -33 -17
-26 -17 -26 0 -12 16 13 18 12 15 -5 -1 -11 1 -28 6 -37 4 -10 5 -25 1 -33 -3
-8 -1 -15 4 -15 5 0 11 8 13 18 3 12 5 13 6 2 1 -20 -45 -73 -58 -66 -5 3 -4
-5 2 -18 7 -14 14 -24 17 -24 24 2 32 -3 22 -15 -13 -16 11 -52 36 -52 9 0 18
-9 20 -20 2 -16 1 -17 -7 -6 -7 11 -11 5 -16 -25 -13 -84 -13 -84 6 -84 11 0
19 6 19 12 0 17 45 -51 55 -82 4 -14 11 -29 15 -35 13 -18 40 -107 34 -116 -3
-5 0 -9 6 -9 6 0 8 -4 5 -10 -3 -5 -1 -10 5 -10 6 0 9 -10 7 -22 -2 -13 -2
-17 0 -10 10 29 43 -6 43 -46 0 -11 7 -23 16 -26 25 -9 30 1 11 22 -10 10 -17
25 -17 33 1 10 5 8 16 -6 8 -11 18 -19 22 -17 13 6 14 -31 1 -39 -10 -6 -7
-19 14 -61 15 -29 27 -56 27 -60 0 -4 -18 10 -40 32 -22 22 -40 35 -40 31 0
-5 12 -19 26 -32 14 -13 30 -35 35 -49 8 -18 12 -21 18 -11 7 11 11 9 20 -7 8
-15 8 -21 -2 -25 -17 -6 -37 3 -37 17 0 7 -11 23 -25 36 -21 19 -25 21 -25 7
0 -9 5 -17 10 -17 6 0 10 -9 10 -20 0 -10 8 -24 18 -30 15 -10 15 -11 0 -6 -9
3 -19 -2 -22 -11 -5 -12 -9 -13 -21 -3 -8 7 -15 9 -15 4 0 -5 -7 0 -15 10 -20
26 -28 15 -15 -20 9 -23 8 -31 -4 -40 -22 -16 -20 -24 7 -21 18 2 22 -3 22
-28 0 -19 -5 -29 -12 -27 -7 1 -13 -2 -13 -8 0 -5 9 -10 20 -10 19 0 26 23 21
67 -1 6 3 14 9 18 6 3 7 0 4 -9 -3 -9 -2 -16 4 -16 6 0 12 5 14 12 2 6 9 8 16
4 6 -3 9 -13 6 -21 -4 -8 -11 -12 -18 -8 -6 4 -5 -1 3 -11 12 -14 12 -19 1
-26 -7 -5 26 -9 79 -9 l91 -1 -16 25 c-9 14 -20 25 -25 25 -5 0 -9 5 -9 11 0
7 -9 20 -20 29 -24 21 -14 32 19 23 15 -4 19 -8 11 -13 -15 -9 -4 -30 14 -30
8 0 19 7 26 15 10 12 9 15 -6 16 -11 0 -14 3 -6 6 7 3 19 0 27 -7 15 -12 49 2
72 30 11 13 12 13 13 -3 0 -11 -9 -21 -20 -24 -11 -3 -20 -9 -20 -14 0 -5 -7
-9 -15 -9 -8 0 -14 -3 -14 -7 3 -20 -2 -26 -11 -13 -6 9 -10 10 -10 3 0 -6 5
-15 10 -18 16 -10 12 -25 -5 -19 -11 5 -13 2 -9 -10 8 -22 89 -23 98 -1 7 19
46 20 46 1 0 -11 26 -14 136 -15 134 -1 151 4 102 30 -16 8 -19 8 -13 -1 5 -8
3 -11 -6 -8 -8 3 -14 16 -14 31 -1 14 3 23 7 21 4 -3 8 0 8 5 0 6 -5 11 -10
11 -6 0 -9 18 -8 40 3 36 6 40 23 36 11 -3 23 -6 27 -6 4 0 5 -6 2 -13 -3 -8
2 -20 11 -27 8 -7 15 -19 15 -27 0 -7 7 -25 16 -38 9 -14 13 -25 9 -25 -10 0
-44 43 -45 56 0 18 -37 47 -44 35 -4 -6 2 -16 14 -23 11 -7 20 -18 20 -25 0
-7 4 -13 9 -13 5 0 12 -14 16 -30 6 -26 11 -30 41 -30 28 0 34 4 34 21 0 11
-4 18 -9 15 -5 -3 -15 1 -22 10 -10 13 -10 17 0 24 8 4 10 13 6 20 -5 8 -4 11
2 7 14 -9 37 48 27 64 -5 9 -2 10 9 6 10 -4 17 -2 17 4 0 6 6 9 14 6 8 -3 17
-1 20 6 2 7 5 3 5 -9 1 -11 -2 -24 -6 -28 -4 -3 -8 -16 -10 -28 -2 -12 -11
-30 -20 -40 -9 -10 -12 -18 -7 -18 5 0 4 -4 -3 -8 -7 -4 -10 -17 -6 -30 4 -18
12 -22 49 -22 l43 0 -2 40 c-1 31 -5 40 -19 40 -10 0 -23 -10 -28 -22 l-9 -23
0 23 c-1 12 4 22 9 22 6 0 9 3 9 8 -4 22 3 33 19 30 15 -3 17 8 19 86 3 75 1
87 -12 82 -8 -3 -15 0 -15 6 0 27 -16 -10 -19 -45 -1 -5 -6 -5 -11 -2 -7 4 -7
13 0 26 7 13 7 19 0 19 -5 0 -10 8 -10 18 0 10 -4 22 -9 28 -5 5 -11 18 -14
29 -2 11 -4 -3 -3 -32 1 -29 -1 -50 -5 -48 -4 3 -10 -2 -13 -11 -8 -22 -8 -26
4 -19 5 3 10 1 10 -5 0 -9 -39 -30 -56 -30 -2 0 2 13 10 29 9 16 12 32 8 35
-3 4 -12 -8 -18 -26 -6 -18 -18 -34 -27 -36 -15 -3 -15 -1 -1 27 9 17 14 36
12 43 -2 6 -12 -5 -22 -25 -18 -40 -31 -50 -21 -17 4 11 2 20 -4 20 -6 0 -11
7 -11 15 0 9 -6 12 -16 8 -13 -5 -13 -7 -2 -14 11 -7 10 -11 -2 -19 -10 -7
-18 -6 -25 3 -5 6 -18 13 -29 15 -14 3 -17 -1 -12 -13 3 -9 6 -21 6 -26 0 -5
7 -9 15 -9 8 0 15 -5 15 -10 0 -20 -25 -4 -42 25 -15 27 -15 32 -1 47 8 9 28
20 44 23 16 4 31 11 34 16 4 5 17 9 31 9 13 0 24 5 24 11 0 6 6 9 13 6 6 -2
18 3 24 12 11 14 14 14 23 1 8 -13 10 -13 10 1 0 9 6 22 14 28 11 10 16 9 23
-4 6 -10 16 -13 26 -9 9 3 14 10 11 15 -3 6 0 16 6 24 7 8 9 15 4 15 -4 0 2 9
14 20 27 26 28 51 2 75 -31 28 -24 52 13 46 4 0 7 20 7 45 0 25 -4 43 -9 40
-4 -3 -13 6 -19 19 -7 14 -19 25 -28 25 -13 0 -14 -3 -4 -15 10 -12 10 -15 -4
-15 -20 0 -21 -14 -1 -30 8 -7 15 -22 15 -34 0 -17 -2 -18 -10 -6 -8 13 -10
12 -10 -2 0 -21 -11 -23 -28 -6 -9 9 -12 8 -12 -4 0 -9 5 -20 10 -23 21 -13
10 -27 -16 -21 -23 6 -26 4 -21 -13 3 -12 2 -21 -3 -21 -4 0 -13 20 -20 45 -7
25 -16 45 -19 45 -4 0 -17 21 -30 46 -23 49 -35 49 -46 1 -5 -17 -3 -27 4 -27
16 0 14 -25 -4 -40 -12 -10 -15 -10 -15 1 -1 9 -6 7 -16 -6 -14 -19 -15 -17
-12 27 2 33 6 44 14 37 17 -14 32 36 26 88 -4 39 -2 43 24 49 16 4 34 11 41
16 7 5 14 5 17 -1 3 -5 1 -11 -6 -13 -7 -3 -5 -7 6 -11 10 -4 15 -3 11 3 -9
15 8 12 34 -6 21 -15 22 -18 6 -27 -12 -6 -20 -5 -26 4 -4 7 -11 10 -16 6 -4
-5 -1 -12 6 -16 9 -6 10 -11 2 -15 -21 -13 -11 -21 24 -20 20 1 41 7 49 13 7
6 16 8 20 4 4 -4 4 0 1 9 -4 9 -12 15 -18 12 -7 -2 -17 7 -24 21 -13 30 1 34
30 7 19 -16 20 -16 14 1 -4 9 -3 17 2 17 5 0 11 -9 14 -20 3 -11 1 -18 -4 -14
-5 3 -9 3 -9 0 0 -2 14 -11 30 -20 l30 -14 0 31 c0 24 -3 28 -10 17 -5 -8 -12
-11 -16 -7 -4 4 0 15 9 25 13 15 15 25 6 55 -11 42 -24 51 -17 12 6 -30 -7
-33 -22 -5 -6 11 -8 20 -5 20 2 0 -3 9 -12 20 -10 11 -22 20 -28 20 -11 0 -13
85 -3 96 4 3 2 17 -5 31 -8 19 -8 26 2 32 9 6 8 11 -3 21 -9 7 -13 16 -10 21
9 14 24 10 24 -6 0 -13 3 -13 13 -3 12 10 11 16 -5 33 -16 16 -17 21 -5 23 15
3 34 37 58 104 7 20 16 35 21 32 4 -3 8 22 8 54 0 45 -4 61 -16 66 -26 10 -37
7 -28 -7 5 -7 0 -2 -12 10 -17 19 -49 34 -106 49 -5 1 -11 3 -15 4 -5 1 -12 2
-17 1 -4 -1 -14 3 -21 9 -10 8 -15 8 -20 0 -5 -8 -16 -4 -33 12 -15 13 -20 15
-13 5 8 -9 11 -20 7 -24 -10 -11 -56 -9 -56 2 0 6 -3 6 -8 -1 -12 -18 -45 -26
-53 -13 -4 7 -17 13 -28 14 -11 1 -18 -2 -15 -6 5 -8 -105 -46 -146 -51 -14
-1 -31 2 -39 6 -10 7 -12 5 -6 -3 5 -9 2 -12 -11 -9 -11 2 -24 -3 -30 -11 -10
-12 -16 -13 -35 -3 -22 11 -22 12 -2 7 12 -3 24 -2 27 4 7 11 -22 24 -35 15
-5 -3 -9 0 -9 6 0 6 -10 10 -22 8 -15 -2 -23 -10 -23 -23 0 -14 6 -19 20 -17
17 2 17 1 5 -8 -13 -9 -13 -11 0 -20 12 -7 10 -9 -7 -7 -12 0 -19 5 -16 11 4
5 0 7 -8 4 -12 -5 -14 2 -11 28 4 29 0 35 -23 44 -56 21 -70 6 -36 -40 16 -20
19 -21 18 -6 -1 10 5 21 13 23 12 4 13 3 1 -5 -7 -5 -11 -14 -7 -20 3 -6 2
-14 -4 -17 -8 -5 -7 -11 1 -21 14 -17 -2 -19 -21 -1 -12 10 -12 9 -1 -5 12
-16 10 -19 -10 -28 -24 -9 -24 -9 3 -7 15 2 30 6 34 10 4 4 14 7 23 7 9 -1 -3
-10 -26 -21 -46 -21 -53 -28 -26 -25 10 0 19 -7 21 -18 2 -11 0 -16 -6 -12 -6
3 -13 2 -17 -4 -3 -5 3 -10 15 -10 12 0 28 -13 40 -32 18 -31 19 -33 2 -40
-13 -5 -13 -7 -2 -7 13 -1 13 -2 0 -11 -9 -6 -10 -10 -3 -10 7 0 18 10 24 22
7 12 21 30 33 40 12 9 19 18 16 18 -32 8 -38 7 -34 -5 3 -7 0 -16 -6 -20 -6
-4 -16 8 -24 27 -17 38 -13 47 10 27 15 -12 16 -12 10 8 -8 26 9 40 22 17 8
-15 10 -15 15 1 4 9 3 25 -3 35 -7 13 -6 19 6 24 25 9 27 7 13 -11 -13 -15
-12 -16 9 -11 12 4 20 2 17 -2 -3 -5 -1 -11 4 -14 5 -3 7 -16 4 -29 -4 -16 -2
-18 5 -8 8 11 10 8 9 -12 -1 -14 -6 -23 -11 -20 -5 4 -6 -11 -3 -33 4 -27 1
-45 -8 -58 -17 -22 -20 -4 -5 24 8 15 6 20 -11 25 -11 4 -23 4 -26 1 -4 -3 1
-6 10 -6 9 0 17 -5 17 -11 0 -5 -4 -7 -10 -4 -5 3 -10 -2 -10 -11 0 -16 -1
-16 -14 2 -8 10 -18 16 -22 11 -4 -4 -3 -12 4 -19 8 -8 7 -14 -3 -25 -8 -7
-14 -29 -13 -48 1 -19 -4 -41 -11 -49 -8 -10 -9 -16 -1 -21 12 -8 13 -25 1
-25 -8 0 -54 113 -56 135 0 13 -35 20 -35 7 0 -5 7 -15 15 -22 9 -7 14 -19 11
-26 -3 -8 1 -20 9 -28 8 -7 20 -33 27 -56 8 -25 20 -45 31 -48 9 -2 20 -15 23
-28 3 -13 12 -28 20 -35 8 -6 12 -15 9 -19 -3 -5 4 -6 15 -3 18 5 22 -1 19
-23 0 -4 5 -11 13 -15 10 -7 9 -9 -4 -9 -10 0 -18 -4 -18 -10 0 -5 10 -10 22
-10 12 0 18 -3 15 -6 -6 -6 62 -73 74 -74 4 0 6 11 5 24 0 13 -4 22 -8 19 -10
-5 -11 11 -2 20 11 10 64 -26 64 -43 0 -13 -1 -13 -10 0 -8 12 -10 10 -10 -10
0 -18 -3 -21 -9 -12 -7 11 -10 10 -15 -3 -9 -23 -8 -25 9 -25 10 0 15 -10 15
-32 0 -25 3 -29 10 -18 6 10 10 11 10 3 0 -23 -5 -28 -30 -28 -19 0 -25 -5
-25 -22 0 -13 4 -23 9 -22 5 0 12 -4 15 -10 4 -6 17 -8 30 -4 18 4 22 11 18
29 -3 19 -1 22 9 14 10 -9 11 -6 7 11 -4 15 -3 20 5 15 7 -4 12 -15 12 -24 0
-15 2 -15 10 -2 6 9 13 11 18 5 7 -11 48 -35 57 -35 4 0 3 5 -1 12 -5 8 -2 9
10 5 10 -4 21 -7 26 -7 4 0 7 -8 5 -18 -14 -68 -14 -82 -1 -82 9 0 12 8 8 25
-2 15 0 25 7 25 6 0 11 -7 11 -16 0 -10 6 -14 15 -11 8 4 17 2 20 -3 4 -6 15
-10 25 -10 10 0 24 -8 29 -17 9 -16 10 -16 11 5 0 27 16 29 23 3 5 -21 -8 -49
-19 -38 -4 4 -13 2 -19 -3 -18 -15 -78 -18 -94 -6 -12 9 -13 8 -9 -6 6 -14 -9
-29 -34 -32 -3 -1 -10 -4 -14 -8 -10 -11 -26 -10 -20 0 3 5 -3 18 -13 29 -11
11 -21 29 -25 39 -3 10 -3 6 0 -11 3 -16 6 -40 7 -52 1 -13 5 -23 10 -23 4 0
6 -3 5 -7 -2 -5 5 -19 15 -33 9 -13 17 -20 17 -14 0 5 -5 15 -12 22 -9 9 -9
12 3 12 9 0 24 -9 33 -19 18 -20 18 -19 41 2 12 12 20 27 17 32 -3 6 2 4 11
-4 15 -12 17 -11 17 2 0 13 6 14 30 7 26 -7 30 -6 28 8 -2 10 3 16 10 14 8 -1
29 7 48 18 18 12 38 19 44 15 5 -3 10 -1 10 4 0 6 5 11 11 11 6 0 9 -8 7 -18
-2 -9 -11 -16 -21 -16 -9 1 -17 -2 -17 -8 0 -5 -4 -7 -9 -4 -5 4 -11 2 -13 -4
-1 -5 -14 -11 -27 -13 -14 -2 -27 -9 -29 -15 -2 -7 -12 -12 -22 -12 -10 0 -22
-5 -26 -11 -3 -6 -14 -9 -24 -6 -9 2 -22 -4 -28 -14 -7 -10 -34 -22 -69 -29
-32 -7 -69 -19 -81 -27 -13 -8 -26 -12 -30 -9 -9 10 23 37 46 39 26 2 27 8 6
48 -30 59 -53 78 -84 69 -18 -5 -32 -4 -40 3 -10 9 -11 6 -5 -13 l7 -25 -21
24 c-16 19 -21 21 -21 8 0 -10 -7 -17 -15 -17 -8 0 -15 -4 -15 -10 0 -18 -29
-11 -50 12 -11 12 -20 17 -20 11 0 -8 -8 -8 -30 0 -17 6 -30 15 -30 19 0 4 -7
8 -15 8 -9 0 -18 7 -21 15 -4 8 -10 12 -15 9 -5 -3 -7 -11 -3 -17 3 -7 -5 2
-20 18 -14 17 -33 55 -42 85 -9 30 -22 62 -29 70 -8 8 -17 29 -21 45 -3 17
-13 38 -21 47 -14 15 -13 19 1 34 16 15 16 18 0 41 -9 14 -18 44 -20 67 -3 22
-5 48 -6 56 -1 8 2 25 6 36 4 15 1 27 -9 38 -9 9 -13 16 -9 16 3 0 1 6 -5 13
-7 9 -8 24 -1 47 5 18 7 37 4 42 -3 5 1 20 10 33 21 32 20 71 -3 87 -16 12
-17 20 -9 78 5 36 10 88 12 115 4 58 26 136 36 130 4 -3 13 2 20 10 15 18 36
19 44 3 3 -7 2 0 -1 16 l-6 30 23 -22 c18 -17 26 -19 32 -10 5 10 8 8 8 -4 0
-9 8 -22 18 -27 16 -10 16 -10 0 -11 -10 0 -18 -4 -18 -9 0 -5 9 -7 20 -4 17
5 19 11 14 47 -7 40 -29 96 -40 96 -3 0 -2 -4 1 -10 3 -5 1 -10 -4 -10 -6 0
-11 6 -11 13 0 8 -3 8 -8 2 -4 -6 -14 -10 -22 -10 -8 0 -18 -4 -22 -9 -4 -6
-13 -4 -24 5 -15 13 -16 12 -9 -11 7 -23 6 -24 -9 -10 -10 7 -25 31 -33 52 -8
21 -21 38 -29 38 -8 0 -14 7 -14 15 0 8 6 12 13 9 18 -7 15 41 -5 81 -8 17
-13 37 -10 45 2 9 -2 7 -11 -5 -12 -16 -18 -17 -30 -7 -22 19 -29 -1 -9 -24
18 -20 29 -74 15 -74 -4 0 -24 25 -43 55 -36 57 -58 74 -70 54 -6 -8 -9 -8
-15 1 -4 6 -13 9 -21 6 -8 -3 -14 1 -14 10 0 12 7 15 26 11 20 -3 28 0 31 14
6 23 12 23 37 4 25 -19 40 -19 32 0 -4 10 1 15 14 15 11 0 20 -4 20 -10 0 -5
5 -10 12 -10 9 0 9 3 0 12 -7 7 -12 22 -12 35 0 14 -6 23 -16 23 -8 0 -12 5
-9 10 3 6 2 10 -4 10 -6 0 -8 -13 -5 -32 l6 -33 -31 33 c-28 29 -36 32 -32 10
0 -5 -6 -8 -14 -8 -9 0 -12 6 -8 17 4 10 2 14 -4 10 -6 -4 -16 0 -23 8 -14 17
-15 16 93 20 49 1 61 -2 74 -19 l15 -21 -6 22 c-6 19 -3 21 29 21 19 0 38 -4
41 -9 8 -14 34 -11 28 4 -2 7 -19 14 -37 16 -17 2 -43 5 -57 6 -14 1 -60 3
-103 4 -53 1 -76 4 -72 12 4 6 -1 6 -12 -2 -14 -8 -25 -9 -37 -2 -17 9 -17 11
-2 16 10 4 15 3 11 -3 -9 -14 -5 -13 44 11 26 12 47 17 54 11 7 -4 19 -8 27
-7 8 1 26 3 38 3 31 2 23 27 -9 28 -56 3 -61 7 -14 14 62 9 193 -4 288 -30 40
-10 83 -21 97 -24 83 -16 123 -28 155 -47 17 -9 29 -22 27 -29 -1 -6 2 -9 7
-5 6 3 8 12 5 20 -3 8 10 -1 30 -19 30 -29 243 -141 365 -193 18 -8 51 -26 73
-39 22 -14 43 -23 46 -20 12 13 -37 40 -243 136 -71 33 -137 65 -145 70 -8 6
-25 14 -37 20 -13 5 -23 18 -23 28 0 23 -69 63 -97 56 -11 -3 -24 -1 -27 4 -4
6 3 8 16 4 20 -5 21 -4 10 11 -9 10 -11 24 -6 39 4 13 7 26 6 31 -5 18 16 5
28 -18 13 -25 30 -33 30 -15 0 6 -4 10 -10 10 -5 0 -12 11 -16 25 -6 24 -38
55 -56 55 -12 0 -10 -38 2 -45 14 -9 12 -31 -3 -47 -7 -7 -14 -17 -15 -23 -1
-5 -6 -10 -12 -9 -5 1 -17 2 -25 3 -8 0 -15 6 -15 12 0 5 5 7 10 4 6 -3 10 -2
10 3 0 5 -17 22 -37 38 -21 15 -39 31 -41 35 -1 3 -13 4 -26 2 -13 -3 -27 1
-31 7 -5 9 -1 10 14 5 11 -3 21 -2 21 3 0 10 -29 26 -42 24 -5 -1 -7 1 -6 6 2
4 -10 19 -25 34 -24 24 -30 26 -47 15 -28 -17 -25 -23 12 -31 23 -4 29 -9 21
-17 -13 -13 70 -104 102 -113 11 -3 -2 -3 -30 0 -71 7 -127 23 -120 34 3 5 12
7 20 3 20 -7 19 3 -3 25 -9 9 -28 16 -42 15 -14 0 -33 -1 -42 -2 -10 -1 -18
-6 -18 -12 0 -6 7 -9 15 -5 8 3 15 1 15 -5 0 -6 5 -7 10 -4 6 3 10 1 10 -5 0
-6 5 -8 10 -5 6 3 10 2 10 -3 0 -6 -17 -7 -42 -4 -24 4 -91 7 -150 7 -60 0
-108 3 -108 8 0 4 8 7 17 7 28 0 -7 30 -43 36 -46 8 -64 15 -64 24 0 5 12 7
28 4 l27 -5 -30 19 c-16 10 -31 15 -33 11 -2 -5 -9 -4 -15 1 -7 6 -23 19 -37
30 l-25 19 33 -9 c19 -5 32 -5 32 1 0 5 -7 9 -15 9 -15 0 -105 86 -105 101 0
5 -7 6 -15 3 -8 -4 -15 -2 -15 4 0 5 -11 17 -23 25 -23 15 -24 15 -19 -10 3
-18 1 -24 -7 -19 -6 4 -11 13 -11 20 0 7 -6 21 -14 31 -13 18 -13 15 -6 -23 8
-48 1 -47 -16 1 -6 18 -16 33 -22 33 -7 1 -15 3 -19 4 -5 1 -15 2 -25 1 -9 -1
-19 3 -23 9 -5 9 -33 15 -36 8z m51 -48 c0 -11 -2 -20 -4 -20 -2 0 -6 9 -9 20
-3 11 -1 20 4 20 5 0 9 -9 9 -20z m181 -94 c11 -1 20 -5 22 -10 3 -13 -67 -16
-75 -3 -8 13 12 28 25 20 6 -3 18 -6 28 -7z m604 -86 c3 -5 -1 -10 -10 -10 -9
0 -13 5 -10 10 3 6 8 10 10 10 2 0 7 -4 10 -10z m-372 -117 c-7 -2 -19 -2 -25
0 -7 3 -2 5 12 5 14 0 19 -2 13 -5z m512 -3 c3 -5 2 -10 -4 -10 -5 0 -13 5
-16 10 -3 6 -2 10 4 10 5 0 13 -4 16 -10z m-480 -190 c3 -6 -1 -7 -9 -4 -18 7
-21 14 -7 14 6 0 13 -4 16 -10z m135 -135 c0 -5 -5 -3 -10 5 -5 8 -10 20 -10
25 0 6 5 3 10 -5 5 -8 10 -19 10 -25z m-73 -36 c12 -19 30 -41 38 -50 15 -15
12 -16 -32 -11 -56 6 -64 14 -61 63 2 47 24 46 55 -2z m93 1 c0 -19 -18 -19
-23 -1 -3 14 -1 18 9 14 8 -3 14 -9 14 -13z m-38 -32 c-8 -8 -9 -4 -5 13 4 13
8 18 11 10 2 -7 -1 -18 -6 -23z m1 -83 c-3 -9 -8 -14 -10 -11 -3 3 -2 9 2 15
9 16 15 13 8 -4z m769 -214 c-9 -5 -3 -16 19 -39 17 -18 37 -32 44 -32 7 0 15
-7 19 -15 3 -8 10 -15 16 -15 7 0 7 6 0 21 -7 11 -9 23 -7 26 3 3 12 -8 20
-24 8 -15 25 -37 37 -48 l23 -20 -12 23 c-19 36 -8 35 27 -1 29 -30 31 -36 22
-68 -5 -19 -16 -44 -24 -54 -13 -17 -18 -18 -35 -7 -12 6 -29 12 -38 11 -14 0
-13 -2 5 -9 28 -12 38 -37 24 -61 -7 -11 -8 -20 -2 -24 6 -4 3 -16 -6 -31 -16
-23 -18 -24 -35 -8 -10 9 -16 21 -15 27 2 7 1 9 -1 4 -3 -4 -10 -4 -16 -1 -7
4 0 -6 14 -22 28 -30 30 -56 14 -124 -5 -19 -7 -44 -6 -54 2 -14 -2 -18 -17
-14 -18 5 -20 2 -15 -31 5 -34 5 -35 -10 -16 -16 20 -16 20 -17 -1 0 -25 -23
-37 -39 -21 -17 17 -13 31 4 17 8 -7 15 -8 15 -2 0 14 -25 33 -33 25 -4 -3 -7
-16 -7 -29 0 -20 -12 -24 -40 -14 -15 6 -36 4 -42 -5 -4 -5 -10 -2 -14 8 -6
17 -7 17 -20 0 -12 -17 -13 -17 -28 2 -10 15 -11 22 -3 27 9 6 9 12 0 26 -6
11 -9 39 -7 63 l5 44 -15 -30 -14 -30 -1 47 c-1 67 -16 102 -41 95 -19 -5 -26
8 -21 37 1 4 -10 23 -24 41 -30 40 -30 42 -7 48 13 3 11 6 -10 15 -16 6 -28
14 -28 17 0 4 5 3 12 -1 6 -4 -5 14 -25 41 -20 26 -37 56 -37 66 0 27 -11 50
-21 43 -5 -3 -9 -1 -9 3 0 15 39 33 56 26 11 -4 15 -3 10 5 -4 6 1 11 11 11
35 0 83 11 119 26 41 17 78 20 69 5 -3 -5 1 -10 9 -10 9 0 16 -4 16 -8 0 -17
-13 -21 -33 -11 -11 7 -17 7 -13 1 5 -9 -64 -62 -82 -62 -5 0 -17 -9 -27 -20
-17 -18 -17 -20 -2 -14 9 3 17 10 17 15 0 4 7 6 15 3 8 -4 15 -10 15 -16 0 -5
-4 -6 -10 -3 -5 3 -10 -3 -10 -14 0 -12 5 -21 11 -21 5 0 7 6 3 13 -5 8 -2 7
10 -2 11 -9 13 -17 6 -21 -17 -11 0 -41 20 -35 11 3 20 0 23 -10 4 -8 13 -12
22 -9 8 3 15 1 15 -5 0 -6 -7 -11 -15 -11 -9 0 -12 -6 -9 -15 8 -21 24 -19 24
3 1 14 3 14 19 -5 11 -13 22 -23 25 -23 9 0 -7 34 -21 45 -10 8 -11 17 -5 35
9 22 11 23 17 8 4 -10 12 -18 17 -18 5 0 -9 21 -31 46 -43 49 -59 94 -21 59
11 -10 17 -21 15 -25 -3 -4 2 -11 11 -14 10 -4 13 -2 8 6 -5 7 -2 9 8 5 9 -3
20 -1 26 5 8 8 16 7 28 -3 15 -12 16 -11 10 11 -7 24 -7 24 9 5 16 -20 55 -30
55 -14 0 14 -18 19 -24 7 -3 -7 -4 -4 -3 7 2 24 27 36 45 22 7 -5 15 -8 18 -5
2 3 -14 22 -36 42 -22 20 -40 40 -40 45 0 5 -7 11 -15 15 -8 3 -15 1 -15 -4 0
-5 -7 -7 -15 -4 -8 4 -15 1 -15 -6 0 -6 -4 -8 -10 -5 -5 3 -10 11 -10 17 0 6
2 9 5 6 3 -3 25 0 48 7 42 13 76 3 49 -14z m48 19 c0 -5 -5 -10 -11 -10 -5 0
-7 5 -4 10 3 6 8 10 11 10 2 0 4 -4 4 -10z m-160 -38 c0 -15 -2 -15 -10 -2
-13 20 -13 33 0 25 6 -3 10 -14 10 -23z m-624 -38 c-4 -14 -9 -24 -12 -21 -3
2 -2 17 2 31 3 15 9 25 11 22 3 -3 2 -17 -1 -32z m718 0 c10 -25 -1 -29 -14
-5 -6 12 -7 21 -1 21 5 0 12 -7 15 -16z m-70 -56 c-8 -13 -33 3 -27 17 4 11 8
12 18 2 7 -7 11 -15 9 -19z m-54 -69 c0 -18 -18 -9 -23 12 -4 16 -3 18 9 8 8
-6 14 -15 14 -20z m-596 -86 c5 -14 2 -31 -7 -43 -14 -21 -29 -17 -21 5 3 7 0
16 -7 21 -8 4 -10 3 -5 -4 4 -7 5 -12 2 -12 -3 0 -10 9 -16 20 -9 16 -8 19 7
13 12 -5 15 -2 10 10 -3 9 -4 24 0 32 5 14 7 14 18 -2 7 -10 15 -28 19 -40z
m366 0 c-1 -18 -18 -35 -24 -24 -4 6 -4 16 -1 21 7 12 25 13 25 3z m20 -139
c0 -17 -4 -23 -12 -18 -9 6 -9 3 0 -9 8 -9 10 -22 6 -28 -5 -8 -3 -9 6 -4 10
6 12 3 8 -13 -4 -12 -2 -20 3 -16 5 3 9 -7 8 -23 0 -16 -3 -22 -6 -13 -3 8
-20 28 -36 44 -17 16 -23 27 -14 23 9 -3 17 -2 17 4 0 5 -7 12 -15 15 -8 4
-15 14 -15 23 0 12 2 13 9 3 6 -10 10 -10 20 2 7 8 10 20 6 26 -3 5 -1 10 4
10 6 0 11 -12 11 -26z m-368 -86 c-2 -10 -9 -15 -14 -12 -5 3 -7 12 -4 20 3 8
0 13 -7 11 -7 -1 -13 11 -15 28 l-3 30 24 -29 c13 -17 22 -38 19 -48z m870
-58 c3 -16 2 -30 -1 -30 -13 0 -30 40 -25 55 9 22 21 10 26 -25z m-510 1 c0
-9 1 -22 1 -28 -1 -7 3 -13 9 -13 5 0 6 -5 3 -10 -9 -15 -36 16 -29 33 3 8 1
18 -5 22 -17 10 -13 25 4 19 8 -4 16 -14 17 -23z m132 -7 c3 -8 2 -12 -4 -9
-6 3 -10 10 -10 16 0 14 7 11 14 -7z m-74 -21 c0 -22 -2 -25 -10 -13 -8 12
-10 12 -10 1 0 -8 -3 -12 -6 -8 -8 8 5 47 17 47 5 0 9 -12 9 -27z m390 -15 c0
-16 -3 -19 -11 -11 -6 6 -8 16 -5 22 11 17 16 13 16 -11z m-365 -8 c3 -5 1
-10 -4 -10 -6 0 -11 5 -11 10 0 6 2 10 4 10 3 0 8 -4 11 -10z m440 0 c3 -5 1
-10 -4 -10 -6 0 -11 5 -11 10 0 6 2 10 4 10 3 0 8 -4 11 -10z m-889 -76 c-4
-9 -9 -15 -11 -12 -3 3 -3 13 1 22 4 9 9 15 11 12 3 -3 3 -13 -1 -22z m517
-26 c4 -14 3 -37 -2 -50 -10 -23 -10 -23 -10 4 -1 15 -8 34 -17 42 -9 10 -11
16 -4 16 7 0 9 8 4 22 -6 19 -5 20 8 7 8 -8 18 -26 21 -41z m149 -27 c2 -17 1
-28 -3 -26 -10 7 -18 55 -9 55 4 0 10 -13 12 -29z m-60 1 c2 -4 20 -21 41 -36
20 -16 37 -36 37 -45 0 -14 -2 -14 -11 -1 -9 12 -10 10 -6 -8 5 -20 0 -17 -33
17 -41 42 -56 49 -62 29 -7 -20 -26 1 -21 22 4 16 9 18 26 9 17 -10 19 -9 14
5 -6 16 8 24 15 8z m-87 -62 c3 -6 -1 -7 -9 -4 -18 7 -21 14 -7 14 6 0 13 -4
16 -10z m267 -50 c6 -39 -5 -58 -25 -42 -7 7 -18 8 -22 4 -9 -7 -7 -3 15 41
17 35 27 34 32 -3z m148 -54 c0 -3 -4 -8 -10 -11 -5 -3 -10 -1 -10 4 0 6 5 11
10 11 6 0 10 -2 10 -4z m-112 -66 c-7 -10 -14 -18 -15 -16 -6 6 9 36 18 36 5
0 4 -9 -3 -20z m137 0 c-3 -5 -12 -10 -18 -10 -7 0 -6 4 3 10 19 12 23 12 15
0z m-35 -20 c0 -5 -5 -10 -11 -10 -5 0 -7 5 -4 10 3 6 8 10 11 10 2 0 4 -4 4
-10z m10 -42 c0 -18 -2 -20 -9 -8 -6 8 -7 18 -5 22 9 14 14 9 14 -14z m-660
-143 c0 -8 -2 -15 -4 -15 -2 0 -6 7 -10 15 -3 8 -1 15 4 15 6 0 10 -7 10 -15z
m156 -13 c-18 -16 -18 -16 -6 6 6 13 14 21 18 18 3 -4 -2 -14 -12 -24z m50 -5
c-3 -12 -5 -24 -5 -27 -1 -9 -41 -10 -41 -2 0 4 7 17 15 28 8 12 11 24 7 28
-3 4 1 4 11 1 10 -5 15 -15 13 -28z m170 16 c3 -10 10 -26 15 -35 6 -13 6 -18
-3 -18 -6 0 -1 -11 12 -25 13 -14 32 -25 43 -25 13 0 17 -5 13 -16 -3 -9 -6
-20 -6 -26 0 -6 -6 -6 -15 2 -11 9 -15 10 -15 1 0 -8 -6 -6 -17 4 -12 12 -13
19 -4 24 8 5 3 19 -19 45 -16 21 -27 43 -23 49 3 5 1 7 -5 3 -5 -3 -12 0 -15
6 -3 8 -9 3 -15 -12 -8 -18 -11 -20 -11 -7 -1 9 -8 17 -17 17 -8 0 -13 -3 -11
-7 3 -5 -9 -9 -26 -10 l-32 -2 29 16 c16 8 43 17 60 20 17 3 33 7 35 9 10 9
22 3 27 -13z m324 -30 c-1 -24 -50 -45 -50 -22 0 8 30 28 43 29 4 0 7 -3 7 -7z
m-641 -65 c1 -5 -3 -8 -9 -8 -11 0 -50 40 -50 53 0 10 59 -34 59 -45z m-29
-22 c9 -12 8 -15 -9 -13 -21 1 -26 8 -14 20 9 9 9 9 23 -7z m300 -6 c0 -5 -4
-10 -10 -10 -5 0 -10 5 -10 10 0 6 5 10 10 10 6 0 10 -4 10 -10z m45 0 c-3 -5
-13 -10 -21 -10 -8 0 -14 5 -14 10 0 6 9 10 21 10 11 0 17 -4 14 -10z m-429
-16 c-4 -11 -2 -15 8 -11 8 3 25 -3 38 -13 20 -17 21 -21 8 -31 -12 -8 -9 -10
13 -6 15 2 30 0 34 -6 4 -6 1 -7 -7 -2 -10 6 -12 4 -7 -8 3 -10 2 -17 -3 -17
-6 0 -10 4 -10 9 0 5 -11 12 -24 15 -14 3 -27 15 -31 25 -3 11 -12 22 -20 25
-13 5 -11 36 2 36 3 0 2 -7 -1 -16z m341 10 c-3 -3 -12 -4 -19 -1 -8 3 -5 6 6
6 11 1 17 -2 13 -5z m43 -102 c0 -7 -4 -10 -10 -7 -5 3 -10 16 -10 28 0 18 2
19 10 7 5 -8 10 -21 10 -28z m37 6 c-3 -8 -6 -5 -6 6 -1 11 2 17 5 13 3 -3 4
-12 1 -19z m80 7 c0 -10 -10 -15 -29 -15 -36 0 -37 17 0 23 15 2 27 5 28 6 0
0 1 -6 1 -14z"/>
<path d="M1470 1779 c1 -20 37 -65 46 -56 4 4 2 7 -4 7 -7 0 -12 6 -12 13 0 6
-7 21 -15 31 -11 14 -15 16 -15 5z"/>
<path d="M2115 1399 c-4 -6 -5 -12 -2 -15 2 -3 7 2 10 11 7 17 1 20 -8 4z"/>
<path d="M2040 1369 c0 -5 5 -7 10 -4 6 3 10 8 10 11 0 2 -4 4 -10 4 -5 0 -10
-5 -10 -11z"/>
<path d="M2370 1262 c6 -13 14 -21 18 -18 3 4 -2 14 -12 24 -18 16 -18 16 -6
-6z"/>
<path d="M2304 1194 c5 -14 4 -15 -9 -4 -21 18 -19 -3 4 -29 11 -12 25 -31 33
-41 9 -14 17 -17 27 -11 17 11 5 52 -14 45 -7 -3 -16 0 -21 7 -4 8 -3 10 4 5
16 -10 15 5 -2 27 -17 22 -30 22 -22 1z"/>
<path d="M2370 1199 c0 -5 5 -7 10 -4 6 3 10 8 10 11 0 2 -4 4 -10 4 -5 0 -10
-5 -10 -11z"/>
<path d="M2230 1180 c0 -5 10 -10 23 -10 18 0 19 2 7 10 -19 13 -30 13 -30 0z"/>
<path d="M2123 1155 c0 -8 6 -16 14 -19 7 -3 13 -2 13 3 0 5 -6 14 -13 20 -10
8 -14 7 -14 -4z"/>
<path d="M2045 1150 c-3 -5 0 -7 8 -4 10 3 14 -1 13 -13 -1 -18 4 -23 24 -23
15 0 12 16 -6 34 -18 18 -30 20 -39 6z"/>
<path d="M2300 1086 c0 -2 8 -10 18 -17 15 -13 16 -12 3 4 -13 16 -21 21 -21
13z"/>
<path d="M2363 1042 c-7 -4 -9 -13 -4 -21 10 -16 31 -6 31 15 0 16 -9 18 -27
6z"/>
<path d="M2161 999 c0 -9 6 -22 14 -29 10 -9 15 -9 15 -1 0 6 -4 11 -9 11 -5
0 -12 8 -14 18 -4 14 -5 14 -6 1z"/>
<path d="M2227 936 c-4 -9 -12 -15 -19 -14 -7 2 -14 -7 -16 -20 -3 -19 0 -23
19 -20 24 3 42 37 29 57 -5 10 -9 9 -13 -3z"/>
<path d="M2383 938 c3 -9 0 -21 -6 -27 -8 -8 -7 -11 5 -11 9 0 18 -6 21 -12 2
-7 3 3 2 22 -1 19 -8 36 -15 38 -8 3 -11 -1 -7 -10z"/>
<path d="M361 2425 c1 -40 1 -40 11 -12 7 21 7 32 -1 40 -8 8 -11 0 -10 -28z"/>
<path d="M7 2443 c-14 -13 -7 -63 8 -63 8 0 15 -6 15 -12 1 -15 30 49 30 64 0
6 -7 8 -15 4 -8 -3 -15 -1 -15 4 0 11 -13 13 -23 3z"/>
<path d="M223 2428 c-2 -18 0 -20 7 -8 12 18 13 30 2 30 -4 0 -9 -10 -9 -22z"/>
<path d="M293 2429 c-2 -23 3 -25 10 -4 4 8 3 16 -1 19 -4 3 -9 -4 -9 -15z"/>
<path d="M1206 2442 c-2 -4 4 -9 15 -9 11 -1 17 2 14 8 -7 11 -22 12 -29 1z"/>
<path d="M194 2413 c1 -24 5 -28 31 -29 28 -1 29 -1 2 3 -23 4 -26 8 -21 29 3
13 2 24 -3 24 -6 0 -10 -12 -9 -27z"/>
<path d="M637 2423 c-4 -3 -7 -11 -7 -17 0 -6 5 -5 12 2 6 6 9 14 7 17 -3 3
-9 2 -12 -2z"/>
<path d="M1241 2413 c-1 -17 16 -25 25 -12 4 7 3 9 -4 5 -5 -3 -13 0 -15 6 -4
9 -6 10 -6 1z"/>
<path d="M2112 2385 c0 -26 3 -31 12 -22 7 6 13 16 13 22 0 6 -6 16 -13 22 -9
9 -12 4 -12 -22z"/>
<path d="M157 2389 c7 -7 15 -10 18 -7 3 3 -2 9 -12 12 -14 6 -15 5 -6 -5z"/>
<path d="M1290 2380 c0 -11 5 -20 11 -20 5 0 7 5 4 10 -3 6 -2 10 3 10 13 0
24 -29 16 -41 -3 -6 12 -17 35 -26 22 -8 42 -22 46 -30 4 -11 1 -13 -12 -9 -9
4 -4 -5 12 -20 16 -14 33 -27 39 -28 6 -1 17 -5 24 -9 6 -5 16 -6 20 -3 5 3
21 -1 36 -9 23 -13 28 -12 33 1 3 8 12 13 20 10 8 -3 12 -2 9 3 -3 5 -17 9
-31 9 -14 0 -33 6 -43 14 -21 19 -53 32 -70 29 -7 -1 -15 6 -19 16 -8 22 -42
58 -85 90 -39 28 -48 29 -48 3z"/>
<path d="M2026 2391 c-5 -7 -3 -18 3 -24 14 -14 20 -6 11 17 -5 15 -9 16 -14
7z"/>
<path d="M283 2384 c-7 -3 -9 -12 -6 -21 4 -11 0 -14 -17 -11 -13 1 -25 -3
-27 -9 -3 -9 7 -13 34 -13 48 0 65 10 53 30 -7 10 -10 11 -10 3 0 -7 -5 -13
-11 -13 -6 0 -9 9 -6 20 3 11 4 20 4 19 -1 0 -7 -3 -14 -5z"/>
<path d="M1580 2380 c0 -5 5 -10 11 -10 5 0 7 5 4 10 -3 6 -8 10 -11 10 -2 0
-4 -4 -4 -10z"/>
<path d="M2060 2371 c0 -5 5 -13 10 -16 6 -3 10 -2 10 4 0 5 -4 13 -10 16 -5
3 -10 2 -10 -4z"/>
<path d="M1468 2354 c11 -21 59 -51 67 -42 9 9 -6 36 -23 41 -9 3 -25 8 -36
12 -16 7 -17 5 -8 -11z"/>
<path d="M1928 2363 c7 -3 16 -2 19 1 4 3 -2 6 -13 5 -11 0 -14 -3 -6 -6z"/>
<path d="M1 2324 c0 -22 3 -32 6 -24 3 8 10 20 14 26 6 7 3 16 -6 24 -13 11
-15 7 -14 -26z"/>
<path d="M1785 2352 c-12 -12 -3 -23 14 -17 14 4 21 0 25 -13 4 -11 24 -24 49
-32 23 -8 48 -18 55 -23 8 -7 12 -5 12 6 0 8 -12 22 -26 32 -15 9 -23 12 -20
6 12 -19 -3 -12 -34 16 -28 25 -63 36 -75 25z"/>
<path d="M1965 2350 c4 -6 13 -10 21 -10 8 0 14 -3 14 -7 1 -13 79 -67 102
-70 l22 -3 -24 25 c-24 26 -36 33 -25 15 3 -5 -9 0 -28 13 -34 22 -33 36 1 21
9 -4 28 -8 42 -10 23 -2 23 -1 -5 11 -39 16 -128 27 -120 15z"/>
<path d="M2150 2354 c0 -5 9 -15 20 -21 15 -10 21 -10 26 0 4 6 3 9 -1 4 -5
-4 -17 0 -27 10 -10 9 -18 12 -18 7z"/>
<path d="M200 2340 c-13 -8 -12 -10 3 -10 9 0 17 5 17 10 0 12 -1 12 -20 0z"/>
<path d="M1620 2320 c0 -6 7 -10 15 -10 8 0 15 2 15 4 0 2 -7 6 -15 10 -8 3
-15 1 -15 -4z"/>
<path d="M2205 2320 c-3 -6 1 -7 9 -4 18 7 21 14 7 14 -6 0 -13 -4 -16 -10z"/>
<path d="M1550 2300 c0 -5 -6 -7 -13 -4 -8 3 -14 -2 -14 -10 0 -11 5 -13 19
-5 16 9 25 29 13 29 -3 0 -5 -4 -5 -10z"/>
<path d="M1570 2290 c0 -5 5 -10 10 -10 6 0 10 -4 10 -10 0 -5 -9 -10 -20 -10
-11 0 -20 -4 -20 -10 0 -5 14 -10 31 -10 20 0 28 -4 23 -12 -5 -7 -2 -9 9 -5
12 4 14 2 10 -11 -3 -9 -3 -14 1 -10 5 4 20 2 35 -3 21 -8 15 1 -29 45 -58 60
-60 61 -60 46z"/>
<path d="M1735 2260 c-3 -6 1 -7 9 -4 18 7 21 14 7 14 -6 0 -13 -4 -16 -10z"/>
<path d="M2318 2263 c7 -3 16 -2 19 1 4 3 -2 6 -13 5 -11 0 -14 -3 -6 -6z"/>
<path d="M2425 2260 c3 -5 8 -10 11 -10 2 0 4 5 4 10 0 6 -5 10 -11 10 -5 0
-7 -4 -4 -10z"/>
<path d="M2450 2260 c0 -6 5 -11 10 -11 20 -3 25 -4 38 -13 7 -4 16 -5 19 -2
4 3 1 6 -6 6 -7 0 -9 5 -6 10 3 6 3 10 -2 11 -4 0 -18 2 -30 5 -13 2 -23 -1
-23 -6z"/>
<path d="M2587 2263 c-4 -3 -21 -6 -39 -5 -27 1 -30 -1 -15 -9 9 -6 21 -8 26
-4 5 3 17 -2 25 -11 15 -14 16 -13 16 10 0 27 -2 30 -13 19z"/>
<path d="M2225 2240 c3 -5 11 -10 16 -10 6 0 7 5 4 10 -3 6 -11 10 -16 10 -6
0 -7 -4 -4 -10z"/>
<path d="M780 2229 c0 -5 5 -7 10 -4 6 3 10 8 10 11 0 2 -4 4 -10 4 -5 0 -10
-5 -10 -11z"/>
<path d="M2285 2220 c27 -12 43 -12 25 0 -8 5 -22 9 -30 9 -10 0 -8 -3 5 -9z"/>
<path d="M2356 2221 c-4 -6 -13 -8 -19 -5 -9 5 -9 4 -1 -5 16 -17 46 -10 35 8
-6 9 -11 10 -15 2z"/>
<path d="M564 2188 c4 -13 0 -18 -14 -18 -10 0 -22 5 -25 10 -3 6 -12 10 -18
10 -7 0 -5 -6 5 -14 10 -7 15 -21 12 -32 -6 -28 12 -52 27 -37 10 10 17 6 36
-15 14 -16 21 -20 17 -9 -9 25 14 51 33 36 29 -25 20 -2 -12 29 l-35 32 6 -32
c5 -31 4 -32 -10 -14 -8 10 -13 23 -10 27 3 5 0 17 -6 26 -11 17 -11 17 -6 1z"/>
<path d="M41 2169 c-16 -26 -10 -32 30 -31 31 1 31 0 12 -20 -18 -21 -18 -21
5 -7 12 8 22 17 22 21 0 12 -37 28 -45 20 -5 -4 -6 -2 -2 3 3 6 2 16 -2 23 -4
8 -11 5 -20 -9z"/>
<path d="M268 2142 c-29 -31 -46 -41 -54 -34 -5 4 -2 -1 6 -11 12 -16 12 -18
-1 -17 -28 4 -40 0 -33 -12 5 -7 2 -9 -9 -5 -11 4 -14 2 -10 -9 4 -12 8 -12
21 -2 8 7 27 18 41 25 14 6 20 12 12 12 -11 1 -11 4 -1 16 7 8 18 15 25 15 7
0 16 7 19 16 9 24 3 26 -16 6z"/>
<path d="M347 2146 c-4 -10 -1 -13 8 -9 8 3 12 9 9 14 -7 12 -11 11 -17 -5z"/>
<path d="M428 2153 c7 -3 16 -2 19 1 4 3 -2 6 -13 5 -11 0 -14 -3 -6 -6z"/>
<path d="M216 2134 c-6 -15 -4 -15 11 -3 10 7 20 15 22 16 2 2 -3 3 -11 3 -9
0 -19 -7 -22 -16z"/>
<path d="M462 2134 c-10 -11 -8 -15 7 -24 37 -19 73 -5 39 16 -7 5 -9 2 -4 -7
4 -8 -1 -5 -11 7 -15 17 -21 18 -31 8z"/>
<path d="M295 2129 c-11 -17 -2 -18 19 -3 17 12 17 14 4 14 -9 0 -20 -5 -23
-11z"/>
<path d="M380 2129 c0 -5 5 -7 10 -4 6 3 10 8 10 11 0 2 -4 4 -10 4 -5 0 -10
-5 -10 -11z"/>
<path d="M400 2115 c-8 -9 -8 -15 -2 -15 12 0 26 19 19 26 -2 2 -10 -2 -17
-11z"/>
<path d="M2555 2120 c-3 -5 -1 -10 4 -10 6 0 11 5 11 10 0 6 -2 10 -4 10 -3 0
-8 -4 -11 -10z"/>
<path d="M5 2110 c3 -5 8 -10 11 -10 2 0 4 5 4 10 0 6 -5 10 -11 10 -5 0 -7
-4 -4 -10z"/>
<path d="M299 2095 c-1 -3 -2 -11 -3 -17 -1 -7 -10 -12 -20 -10 -18 3 -18 3
-2 -14 15 -14 19 -15 27 -3 9 15 12 49 4 49 -3 0 -6 -2 -6 -5z"/>
<path d="M636 2083 c-6 -14 -5 -15 5 -6 7 7 10 15 7 18 -3 3 -9 -2 -12 -12z"/>
<path d="M1067 2080 c-3 -13 1 -21 14 -25 30 -10 43 4 23 26 -22 24 -30 24
-37 -1z"/>
<path d="M1170 2086 c0 -13 28 -86 33 -86 2 0 3 12 2 28 0 20 4 26 18 24 13
-2 17 4 17 25 0 23 -2 25 -11 13 -8 -11 -12 -12 -16 -2 -6 16 -43 15 -43 -2z"/>
<path d="M86 2064 c-8 -21 -8 -24 5 -24 5 0 8 4 5 9 -4 5 -1 11 6 13 8 3 9 6
1 11 -6 4 -14 0 -17 -9z"/>
<path d="M2171 2043 c36 -42 57 -57 79 -58 8 0 14 -6 12 -13 -3 -17 20 -11 26
6 2 7 -4 12 -12 12 -9 0 -19 7 -22 15 -4 10 -14 13 -32 8 -21 -5 -24 -3 -19
11 4 9 3 15 -2 12 -5 -3 -16 5 -25 19 -9 14 -21 25 -27 25 -6 0 4 -17 22 -37z"/>
<path d="M46 2057 c-16 -12 -16 -13 3 -13 12 0 21 6 21 13 0 7 -1 13 -3 13 -2
0 -11 -6 -21 -13z"/>
<path d="M2122 2050 c7 -11 19 -22 28 -25 8 -4 4 5 -9 19 -29 31 -36 33 -19 6z"/>
<path d="M530 2027 c-78 -19 -38 -31 45 -13 11 2 24 5 29 5 15 1 -3 15 -22 16
-9 1 -33 -3 -52 -8z"/>
<path d="M1145 2031 c-6 -11 9 -23 19 -14 9 9 7 23 -3 23 -6 0 -12 -4 -16 -9z"/>
<path d="M1221 2014 c0 -11 3 -14 6 -6 3 7 2 16 -1 19 -3 4 -6 -2 -5 -13z"/>
<path d="M160 2010 c-19 -5 -38 -6 -42 -4 -3 2 -9 0 -13 -6 -4 -6 -11 -7 -17
-4 -6 4 -8 1 -6 -7 3 -8 11 -13 18 -11 7 1 18 -5 25 -15 13 -17 13 -17 12 2
-2 15 5 21 26 23 15 2 27 8 27 13 0 5 6 4 14 -3 8 -7 12 -15 11 -18 -2 -3 5
-7 16 -7 10 -1 19 2 19 8 0 5 -6 9 -14 9 -8 0 -16 7 -20 15 -6 16 -6 16 -56 5z"/>
<path d="M440 2010 c0 -5 5 -10 11 -10 5 0 7 5 4 10 -3 6 -8 10 -11 10 -2 0
-4 -4 -4 -10z"/>
<path d="M2410 2007 c26 -20 83 -110 66 -103 -45 18 -50 18 -29 2 17 -13 21
-24 18 -54 -3 -20 -2 -29 1 -19 6 18 54 25 54 7 0 -5 6 -10 14 -10 8 0 17 -7
20 -16 3 -8 11 -12 17 -9 7 5 4 13 -7 26 -9 11 -19 17 -22 14 -3 -2 -13 4 -22
15 -18 21 -16 69 4 82 7 5 6 8 -4 8 -8 0 -35 16 -59 35 -24 19 -49 35 -55 35
-6 0 -4 -6 4 -13z"/>
<path d="M398 2003 c6 -2 18 -2 25 0 6 3 1 5 -13 5 -14 0 -19 -2 -12 -5z"/>
<path d="M260 1985 c0 -16 16 -20 24 -6 3 5 -1 11 -9 15 -9 3 -15 0 -15 -9z"/>
<path d="M640 1990 c0 -5 5 -10 11 -10 5 0 7 5 4 10 -3 6 -8 10 -11 10 -2 0
-4 -4 -4 -10z"/>
<path d="M2313 1994 c3 -4 -1 -13 -9 -21 -12 -12 -12 -18 -2 -31 11 -13 11
-15 -2 -8 -8 4 -6 0 4 -8 11 -9 29 -16 40 -16 20 0 20 0 0 15 -10 8 -14 15 -7
15 6 0 18 -9 25 -19 11 -16 16 -17 31 -7 15 11 15 15 2 32 -12 15 -16 16 -23
6 -7 -11 -11 -10 -16 3 -4 10 -12 15 -22 11 -12 -4 -14 -1 -9 14 4 13 2 20 -6
20 -7 0 -10 -3 -6 -6z"/>
<path d="M0 1975 c0 -6 9 -19 21 -28 20 -18 21 -18 14 2 -5 17 -2 21 14 21 12
0 21 4 21 9 0 5 -16 9 -35 8 -19 -1 -35 -6 -35 -12z"/>
<path d="M1273 1966 c-7 -8 -8 -17 -3 -22 5 -5 10 -24 12 -41 1 -18 9 -35 16
-38 12 -4 14 3 8 41 -3 26 -6 53 -6 60 0 17 -11 17 -27 0z"/>
<path d="M1641 1971 c-11 -7 -7 -22 20 -81 18 -40 35 -68 37 -62 2 6 -2 20 -8
31 -9 17 -8 20 5 15 8 -4 15 -12 15 -20 0 -8 4 -14 10 -14 5 0 7 7 4 15 -4 9
-1 15 7 14 21 -2 66 -17 52 -18 -8 -1 -6 -15 6 -46 17 -45 31 -67 31 -48 0 6
9 9 20 6 11 -3 20 -11 20 -18 0 -12 21 -25 40 -25 5 0 10 8 13 18 3 13 6 11
15 -11 7 -16 9 -34 6 -40 -3 -7 7 2 23 20 21 24 31 29 38 20 6 -7 9 -20 7 -29
-2 -10 1 -18 7 -18 6 0 11 12 11 26 0 21 3 24 13 16 14 -12 57 -5 57 8 0 11
-27 31 -47 35 -10 2 -19 4 -20 5 -2 2 -6 3 -10 4 -36 9 -53 20 -53 37 0 22 11
24 28 7 9 -9 12 -9 12 1 0 6 -14 17 -30 23 -33 11 -78 78 -52 78 4 0 12 -10
17 -22 13 -28 41 -39 32 -12 -5 13 1 10 18 -9 14 -15 25 -24 25 -19 0 6 -13
24 -29 41 -15 16 -26 33 -22 36 3 4 -8 4 -24 1 -21 -4 -36 0 -53 16 l-23 22
17 -39 c9 -22 23 -48 32 -57 14 -16 14 -18 -1 -18 -8 0 -22 6 -29 13 -7 6 -28
13 -46 13 -18 1 -40 5 -50 9 -9 5 -30 7 -45 6 -15 -2 -35 3 -44 11 -15 11 -16
11 -9 -7 7 -19 7 -19 -12 1 -12 12 -18 31 -17 47 2 15 3 27 2 27 -1 0 -8 -4
-16 -9z m217 -137 c14 -2 30 2 34 9 5 8 17 2 38 -21 33 -36 41 -63 13 -41 -10
8 -23 20 -28 27 -8 9 -60 11 -60 2 0 -1 -10 -3 -23 -4 -27 -3 -45 15 -36 38 5
13 9 14 21 5 8 -7 26 -14 41 -15z"/>
<path d="M1767 1963 c3 -7 13 -13 22 -13 9 0 26 -3 39 -6 12 -4 22 -2 22 4 0
5 -12 13 -27 17 -47 13 -61 12 -56 -2z"/>
<path d="M1130 1960 c0 -5 8 -14 19 -19 10 -6 21 -18 25 -26 5 -13 1 -15 -17
-10 -14 5 -19 4 -12 -3 6 -5 23 -12 38 -16 31 -7 31 -5 -6 46 -21 28 -47 44
-47 28z"/>
<path d="M260 1953 c-8 -3 -26 -10 -40 -16 -14 -6 -29 -9 -35 -8 -5 1 1 -8 15
-19 14 -11 30 -19 35 -19 6 0 4 3 -2 6 -10 3 -9 8 2 19 8 9 19 12 25 9 5 -3
10 -1 10 5 0 6 5 8 10 5 6 -3 10 1 10 9 0 17 -5 18 -30 9z"/>
<path d="M300 1946 c0 -9 7 -16 16 -16 17 0 14 22 -4 28 -7 2 -12 -3 -12 -12z"/>
<path d="M1590 1940 c0 -5 5 -10 11 -10 5 0 7 5 4 10 -3 6 -8 10 -11 10 -2 0
-4 -4 -4 -10z"/>
<path d="M1621 1933 c-1 -7 -13 -13 -28 -14 l-28 -1 25 -7 c28 -9 45 1 37 21
-4 9 -6 10 -6 1z"/>
<path d="M1700 1936 c0 -2 7 -9 15 -16 9 -7 15 -8 15 -2 0 5 -7 12 -15 16 -8
3 -15 4 -15 2z"/>
<path d="M2540 1932 c0 -12 19 -26 26 -19 2 2 -2 10 -11 17 -9 8 -15 8 -15 2z"/>
<path d="M43 1905 c2 -5 15 -11 30 -12 19 -1 24 2 20 12 -6 16 -55 16 -50 0z"/>
<path d="M1238 1911 c-22 -8 -10 -25 22 -29 22 -4 23 -2 10 15 -8 10 -14 19
-15 19 0 1 -8 -1 -17 -5z"/>
<path d="M2018 1904 c-4 -3 2 -15 12 -27 11 -12 26 -31 35 -42 16 -20 16 -19
5 3 -6 12 -7 22 -3 22 11 0 53 -67 53 -83 0 -24 33 -45 55 -37 28 12 35 12 35
-1 0 -5 -4 -7 -10 -4 -5 3 -10 1 -10 -4 0 -18 28 -12 33 7 4 12 5 11 6 -6 0
-12 8 -25 16 -28 8 -4 15 -12 15 -19 0 -7 7 -15 15 -19 8 -3 12 -12 9 -21 -3
-8 -1 -15 6 -15 6 0 8 5 5 10 -3 6 3 10 13 10 11 0 23 -7 26 -16 4 -11 2 -15
-7 -11 -32 12 -36 -10 -6 -32 18 -13 28 -17 24 -10 -7 11 -6 12 7 2 24 -20 28
-4 7 30 -10 18 -19 39 -19 47 1 18 40 -53 45 -82 6 -27 15 -36 15 -15 0 22 9
21 27 0 13 -16 14 -16 8 10 -3 15 -1 27 4 27 12 0 22 -45 14 -66 -4 -11 -3
-15 4 -11 6 4 14 -3 17 -16 7 -21 7 -21 15 -2 8 19 9 18 21 -7 11 -23 20 -28
48 -28 26 0 33 4 29 15 -4 8 -2 17 3 20 10 6 8 24 -7 50 -6 11 -15 17 -19 13
-8 -8 -44 34 -44 52 0 6 -5 8 -10 5 -6 -3 -15 4 -20 17 -10 22 -10 22 -7 -4 5
-31 -12 -33 -30 -3 l-12 20 -1 -20 c-1 -19 -2 -18 -13 3 -7 12 -17 19 -22 15
-4 -4 -5 -3 -2 3 4 6 0 34 -8 61 -12 41 -22 53 -55 72 -41 23 -65 22 -42 -1 7
-7 12 -17 12 -22 0 -6 -15 5 -33 25 -38 42 -73 60 -63 32 4 -10 -5 -4 -19 12
l-25 30 6 -30 c4 -25 3 -27 -6 -12 -6 9 -18 17 -27 17 -10 0 -13 6 -9 16 5 12
1 14 -15 9 -11 -4 -26 -1 -34 5 -8 7 -15 9 -15 4 0 -4 -10 2 -23 14 -13 12
-26 20 -29 16z m152 -145 c0 -5 -4 -9 -8 -9 -9 0 -32 44 -32 58 1 10 40 -38
40 -49z m160 -59 c0 -13 -1 -13 -10 0 -5 8 -10 22 -10 30 0 13 1 13 10 0 5 -8
10 -22 10 -30z m158 -107 c0 -5 2 -16 7 -26 10 -23 -3 -36 -15 -17 -13 20 -13
50 0 50 6 0 9 -3 8 -7z m62 -53 c0 13 1 13 10 0 14 -22 12 -33 -6 -26 -8 3
-12 2 -9 -4 3 -6 2 -10 -3 -10 -11 0 -22 24 -22 48 0 13 3 12 15 -4 11 -14 14
-15 15 -4z"/>
<path d="M2395 1901 c-7 -12 12 -24 24 -16 5 3 12 1 16 -5 3 -5 12 -10 18 -10
7 0 4 7 -6 15 -11 7 -26 11 -35 8 -10 -4 -13 -2 -8 5 4 7 5 12 2 12 -3 0 -7
-4 -11 -9z"/>
<path d="M2571 1894 c-1 -6 5 -17 12 -23 10 -8 14 -7 14 4 0 8 -4 12 -8 9 -4
-2 -10 2 -12 8 -4 8 -6 9 -6 2z"/>
<path d="M1099 1864 c-11 -14 -9 -19 11 -34 14 -10 28 -16 33 -13 5 3 15 -3
23 -13 14 -18 15 -18 6 1 -5 11 -7 25 -5 32 4 10 -33 43 -48 43 -4 0 -13 -7
-20 -16z"/>
<path d="M1200 1859 c0 -21 46 -65 52 -48 3 9 11 6 26 -9 l22 -22 0 34 c0 27
-5 36 -22 42 -13 4 -24 2 -26 -5 -5 -16 -23 -13 -38 7 -11 15 -13 15 -14 1z"/>
<path d="M0 1824 c0 -16 2 -16 24 -8 22 8 20 19 -4 21 -11 1 -20 -4 -20 -13z"/>
<path d="M1629 1827 c6 -8 7 -18 3 -22 -4 -5 -1 -5 6 -1 10 6 10 11 1 22 -6 8
-14 14 -16 14 -3 0 0 -6 6 -13z"/>
<path d="M630 1818 c0 -4 6 -8 13 -8 8 0 7 -4 -3 -10 -12 -8 -12 -10 5 -10 20
1 67 29 49 31 -50 4 -64 4 -64 -3z"/>
<path d="M2020 1821 c0 -5 5 -13 10 -16 6 -3 10 -2 10 4 0 5 -4 13 -10 16 -5
3 -10 2 -10 -4z"/>
<path d="M480 1810 c0 -5 5 -10 11 -10 5 0 7 5 4 10 -3 6 -8 10 -11 10 -2 0
-4 -4 -4 -10z"/>
<path d="M790 1805 c0 -8 7 -15 16 -15 14 0 14 3 4 15 -7 8 -14 15 -16 15 -2
0 -4 -7 -4 -15z"/>
<path d="M980 1796 c0 -9 5 -16 10 -16 6 0 10 4 10 9 0 6 -4 13 -10 16 -5 3
-10 -1 -10 -9z"/>
<path d="M1700 1802 c0 -5 7 -9 15 -9 8 0 15 4 15 9 0 4 -7 8 -15 8 -8 0 -15
-4 -15 -8z"/>
<path d="M2070 1800 c0 -12 28 -25 36 -17 3 3 -4 10 -15 17 -15 7 -21 7 -21 0z"/>
<path d="M1691 1773 c6 -7 9 -19 6 -28 -4 -8 -2 -17 3 -20 9 -5 15 15 11 37 0
4 7 5 17 1 14 -5 15 -3 5 7 -17 19 -57 22 -42 3z"/>
<path d="M995 1760 c-3 -5 -1 -10 4 -10 6 0 11 5 11 10 0 6 -2 10 -4 10 -3 0
-8 -4 -11 -10z"/>
<path d="M2401 1749 c-1 -9 7 -23 17 -30 15 -12 16 -12 6 1 -6 8 -14 22 -17
30 -5 13 -6 12 -6 -1z"/>
<path d="M2430 1744 c0 -3 7 -12 15 -20 8 -9 15 -24 15 -35 0 -10 4 -19 9 -19
5 0 7 9 4 20 -6 22 12 28 20 8 4 -9 6 -8 6 2 1 9 -12 23 -28 33 -31 18 -41 21
-41 11z"/>
<path d="M2121 1711 c13 -37 39 -62 39 -37 0 10 5 14 10 11 6 -3 10 -15 10
-26 0 -10 4 -19 9 -19 5 0 11 -6 14 -12 2 -7 2 -3 0 10 -2 12 1 22 7 22 5 0
10 -4 10 -10 0 -5 9 -14 20 -20 19 -10 19 -9 8 17 -15 36 -48 73 -48 54 0 -12
-3 -12 -17 0 -20 15 -60 39 -67 39 -3 0 0 -13 5 -29z"/>
<path d="M220 1715 c0 -16 16 -20 24 -6 3 5 -1 11 -9 15 -9 3 -15 0 -15 -9z"/>
<path d="M550 1719 c0 -5 5 -7 10 -4 6 3 10 8 10 11 0 2 -4 4 -10 4 -5 0 -10
-5 -10 -11z"/>
<path d="M1176 1717 c3 -10 9 -15 12 -12 3 3 0 11 -7 18 -10 9 -11 8 -5 -6z"/>
<path d="M1240 1712 c0 -5 7 -15 15 -22 8 -7 15 -9 15 -5 0 4 7 2 15 -5 8 -7
15 -8 15 -2 0 5 -7 15 -15 22 -8 7 -15 9 -15 5 0 -4 -7 -2 -15 5 -8 7 -15 8
-15 2z"/>
<path d="M2102 1700 c0 -14 2 -19 5 -12 2 6 2 18 0 25 -3 6 -5 1 -5 -13z"/>
<path d="M1375 1690 c3 -5 8 -10 11 -10 2 0 4 5 4 10 0 6 -5 10 -11 10 -5 0
-7 -4 -4 -10z"/>
<path d="M533 1645 c-10 -11 -8 -18 7 -37 14 -17 19 -19 20 -7 0 8 -6 21 -12
28 -10 11 -10 13 0 7 6 -4 12 -3 12 3 0 17 -14 20 -27 6z"/>
<path d="M577 1643 c-14 -13 -7 -23 16 -22 17 1 18 2 4 6 -9 2 -15 9 -12 14 7
10 1 12 -8 2z"/>
<path d="M1941 1638 c0 -9 -6 -18 -12 -20 -7 -2 -7 -12 -1 -28 8 -21 11 -22
17 -8 3 9 5 29 2 45 -2 15 -5 21 -6 11z"/>
<path d="M1325 1620 c3 -5 8 -10 11 -10 2 0 4 5 4 10 0 6 -5 10 -11 10 -5 0
-7 -4 -4 -10z"/>
<path d="M1410 1620 c0 -5 5 -10 11 -10 5 0 7 5 4 10 -3 6 -8 10 -11 10 -2 0
-4 -4 -4 -10z"/>
<path d="M1858 1614 c-11 -16 -7 -66 6 -82 7 -10 5 -16 -5 -23 -11 -7 -11 -9
4 -9 12 0 17 8 17 28 0 15 5 33 12 40 9 9 8 12 -4 12 -10 0 -18 10 -20 23 -2
14 -6 18 -10 11z"/>
<path d="M598 1603 c7 -3 16 -2 19 1 4 3 -2 6 -13 5 -11 0 -14 -3 -6 -6z"/>
<path d="M687 1597 c-3 -7 5 -12 19 -12 29 0 29 1 5 14 -14 8 -20 7 -24 -2z"/>
<path d="M1210 1600 c0 -5 5 -10 11 -10 5 0 7 5 4 10 -3 6 -8 10 -11 10 -2 0
-4 -4 -4 -10z"/>
<path d="M96 1592 c-13 -12 -5 -22 19 -22 14 0 25 4 25 9 0 10 -36 21 -44 13z"/>
<path d="M1246 1578 c-5 -14 -9 -18 -13 -10 -2 6 -9 12 -14 12 -6 0 -7 -5 -3
-12 5 -8 2 -9 -9 -5 -14 5 -16 2 -11 -18 4 -15 2 -25 -5 -25 -6 0 -11 -15 -11
-33 0 -26 4 -33 20 -33 22 0 27 12 8 19 -10 4 -10 6 -1 6 7 1 10 8 7 16 -4 8
-1 15 5 15 6 0 11 -5 11 -11 0 -8 6 -7 17 2 13 11 17 11 20 2 3 -7 9 -13 14
-13 16 0 10 23 -12 46 -12 13 -18 28 -14 34 6 9 10 9 16 -1 5 -8 9 -9 9 -3 0
6 -6 17 -14 23 -11 9 -15 7 -20 -11z"/>
<path d="M1317 1580 c-3 -13 -2 -31 3 -39 8 -14 9 -14 16 2 3 10 2 28 -3 40
-10 21 -10 21 -16 -3z"/>
<path d="M2182 1580 c0 -14 2 -19 5 -12 2 6 2 18 0 25 -3 6 -5 1 -5 -13z"/>
<path d="M2220 1593 c5 -2 8 -9 5 -13 -3 -5 -1 -11 4 -14 5 -4 8 2 7 11 -2 9
-8 18 -15 19 -6 1 -7 0 -1 -3z"/>
<path d="M1964 1555 c22 -17 40 -20 32 -6 -3 5 -16 11 -28 14 -22 6 -22 5 -4
-8z"/>
<path d="M1374 1534 c19 -18 22 -49 4 -38 -7 4 -8 3 -4 -4 4 -7 4 -17 0 -23
-4 -8 -14 1 -25 22 l-18 34 4 -65 c5 -67 -1 -104 -15 -95 -4 3 -15 -6 -24 -20
-16 -24 -16 -25 5 -25 15 0 19 -5 15 -15 -3 -8 -1 -15 4 -15 6 0 10 6 10 14 0
8 5 18 12 22 7 4 8 3 4 -4 -5 -8 -2 -10 8 -6 11 4 13 11 7 22 -10 21 -15 129
-5 119 4 -4 15 0 25 9 16 14 16 13 5 -18 -6 -18 -15 -39 -20 -46 -7 -11 -4
-11 12 -1 12 7 19 15 17 18 -8 7 17 31 26 25 5 -3 9 -13 9 -23 0 -10 7 -24 15
-31 13 -11 14 -10 9 4 -8 20 3 21 22 1 12 -11 13 -19 4 -36 -7 -11 -9 -23 -6
-26 3 -4 11 8 17 26 9 24 14 29 20 19 6 -9 9 -9 9 -1 0 6 -5 15 -11 19 -8 4
-7 9 2 15 19 11 -15 83 -36 75 -8 -3 -17 -1 -21 5 -3 6 -12 8 -19 5 -8 -3 -19
7 -27 25 -7 17 -21 29 -31 29 -17 0 -17 -1 -3 -16z"/>
<path d="M1146 1525 c4 -8 7 -15 9 -15 2 0 5 7 9 15 3 9 0 15 -9 15 -9 0 -12
-6 -9 -15z"/>
<path d="M2140 1523 c0 -13 5 -23 10 -23 13 0 13 11 0 30 -8 12 -10 11 -10 -7z"/>
<path d="M1302 1505 c0 -16 2 -22 5 -12 2 9 2 23 0 30 -3 6 -5 -1 -5 -18z"/>
<path d="M488 1503 c7 -3 16 -2 19 1 4 3 -2 6 -13 5 -11 0 -14 -3 -6 -6z"/>
<path d="M1806 1501 c-19 -7 -19 -8 2 -13 15 -4 22 -2 22 8 0 8 -1 14 -2 13
-2 0 -12 -4 -22 -8z"/>
<path d="M1859 1477 c7 -7 14 -8 21 -1 6 6 2 10 -12 11 -16 2 -18 -1 -9 -10z"/>
<path d="M1273 1459 c-2 -23 3 -25 10 -4 4 8 3 16 -1 19 -4 3 -9 -4 -9 -15z"/>
<path d="M2053 1472 c-9 -6 -6 -11 7 -20 21 -13 26 -6 12 15 -4 7 -13 9 -19 5z"/>
<path d="M800 1450 c0 -5 5 -10 11 -10 5 0 7 5 4 10 -3 6 -8 10 -11 10 -2 0
-4 -4 -4 -10z"/>
<path d="M1411 1424 c0 -11 3 -14 6 -6 3 7 2 16 -1 19 -3 4 -6 -2 -5 -13z"/>
<path d="M1716 1427 c3 -10 9 -15 12 -12 3 3 0 11 -7 18 -10 9 -11 8 -5 -6z"/>
<path d="M1256 1413 c-6 -14 -5 -15 5 -6 7 7 10 15 7 18 -3 3 -9 -2 -12 -12z"/>
<path d="M7 1414 c-13 -13 -8 -62 8 -67 8 -4 17 -2 20 3 8 12 -18 73 -28 64z"/>
<path d="M1237 1379 c4 -13 8 -18 11 -10 2 7 -1 18 -6 23 -8 8 -9 4 -5 -13z"/>
<path d="M67 1322 c-21 -23 -22 -39 -2 -22 8 7 15 9 15 4 0 -4 5 -3 12 4 8 8
9 15 2 22 -7 7 -16 5 -27 -8z"/>
<path d="M1521 1314 c0 -11 3 -14 6 -6 3 7 2 16 -1 19 -3 4 -6 -2 -5 -13z"/>
<path d="M15 1300 c-3 -5 -1 -10 4 -10 6 0 11 5 11 10 0 6 -2 10 -4 10 -3 0
-8 -4 -11 -10z"/>
<path d="M1370 1301 c0 -6 4 -13 10 -16 6 -3 7 1 4 9 -7 18 -14 21 -14 7z"/>
<path d="M346 1273 c7 -21 23 -62 33 -82 4 -8 14 -16 22 -19 9 -2 7 2 -5 12
-10 8 -15 20 -11 25 3 6 3 21 0 32 -6 17 -9 19 -16 8 -6 -11 -9 -9 -9 8 0 12
-4 25 -10 28 -6 4 -7 -1 -4 -12z"/>
<path d="M286 1253 c-15 -15 -26 -32 -26 -38 0 -5 4 -5 8 2 8 13 49 12 71 -1
17 -11 5 32 -15 51 -11 11 -17 9 -38 -14z"/>
<path d="M1902 1260 c0 -14 2 -19 5 -12 2 6 2 18 0 25 -3 6 -5 1 -5 -13z"/>
<path d="M54 1257 c-6 -16 -20 -17 -41 -4 -19 12 -15 -8 5 -25 15 -13 19 -12
39 9 12 12 18 25 12 28 -5 4 -12 0 -15 -8z"/>
<path d="M1395 1260 c-3 -5 -1 -10 4 -10 6 0 11 5 11 10 0 6 -2 10 -4 10 -3 0
-8 -4 -11 -10z"/>
<path d="M1742 1231 c14 -23 29 -23 36 0 3 8 1 11 -3 7 -4 -4 -16 -3 -27 3
-17 9 -18 8 -6 -10z"/>
<path d="M551 1214 c0 -11 3 -14 6 -6 3 7 2 16 -1 19 -3 4 -6 -2 -5 -13z"/>
<path d="M1708 1223 c7 -3 16 -2 19 1 4 3 -2 6 -13 5 -11 0 -14 -3 -6 -6z"/>
<path d="M535 1173 c-5 -10 -7 -26 -6 -35 1 -10 -2 -18 -8 -18 -6 0 -8 -7 -5
-15 5 -11 2 -14 -12 -9 -13 5 -7 -5 15 -29 19 -20 35 -36 36 -34 1 1 7 12 13
24 10 18 9 20 -7 16 -23 -6 -33 17 -24 57 6 31 23 52 23 29 0 -7 2 -10 5 -7 7
7 -5 38 -15 38 -4 0 -11 -8 -15 -17z"/>
<path d="M386 1145 c-18 -14 -18 -15 -2 -15 9 0 14 -4 11 -10 -3 -6 1 -7 9 -4
9 3 16 1 16 -5 0 -6 9 -11 20 -11 11 0 20 -5 20 -11 0 -6 -7 -9 -15 -5 -9 3
-15 0 -15 -9 0 -8 8 -15 18 -15 10 0 24 -6 31 -12 12 -11 13 -9 6 7 -4 11 -7
28 -7 38 0 9 -3 17 -7 17 -5 0 -11 9 -14 21 -3 12 -10 18 -16 15 -5 -4 -12 -2
-16 4 -8 13 -16 12 -39 -5z"/>
<path d="M314 1139 c-3 -5 -1 -9 4 -9 6 0 15 -13 21 -30 5 -16 13 -30 16 -30
3 0 3 5 0 10 -3 6 -1 10 4 10 6 0 11 -7 11 -16 0 -10 -7 -14 -22 -12 -13 1
-23 -2 -23 -7 0 -6 7 -9 15 -7 8 2 30 4 48 5 33 2 39 11 22 37 -6 10 -10 11
-10 3 0 -23 -17 -14 -30 16 -12 29 -45 47 -56 30z"/>
<path d="M1785 1130 c3 -5 8 -10 11 -10 2 0 4 5 4 10 0 6 -5 10 -11 10 -5 0
-7 -4 -4 -10z"/>
<path d="M300 1090 c0 -5 7 -10 16 -10 8 0 12 5 9 10 -3 6 -10 10 -16 10 -5 0
-9 -4 -9 -10z"/>
<path d="M150 1010 c0 -5 5 -10 10 -10 6 0 10 5 10 10 0 6 -4 10 -10 10 -5 0
-10 -4 -10 -10z"/>
<path d="M86 971 c-3 -5 1 -11 9 -15 8 -3 15 -1 15 4 0 13 -18 22 -24 11z"/>
<path d="M127 973 c-4 -3 -7 -11 -7 -17 0 -6 5 -5 12 2 6 6 9 14 7 17 -3 3 -9
2 -12 -2z"/>
<path d="M57 963 c-10 -10 -8 -43 2 -43 5 0 8 11 7 25 0 14 -1 25 -2 25 0 0
-4 -3 -7 -7z"/>
<path d="M6 935 c-8 -22 3 -40 16 -27 7 7 7 16 1 27 -9 16 -10 16 -17 0z"/>
<path d="M1747 934 c-3 -4 0 -16 8 -26 7 -11 11 -26 9 -33 -3 -7 4 -30 15 -50
11 -21 18 -42 15 -47 -3 -4 0 -8 7 -8 14 0 5 100 -9 109 -5 3 -16 19 -24 34
-7 15 -17 25 -21 21z"/>
<path d="M1436 897 c3 -10 9 -15 12 -12 3 3 0 11 -7 18 -10 9 -11 8 -5 -6z"/>
<path d="M1742 860 c0 -14 2 -19 5 -12 2 6 2 18 0 25 -3 6 -5 1 -5 -13z"/>
<path d="M1825 830 c7 -69 25 -117 36 -98 6 9 9 8 9 -7 1 -14 5 -10 16 15 l16
35 12 -34 c7 -19 17 -36 24 -39 13 -4 -24 75 -45 97 -11 10 -12 16 -4 19 16 5
14 22 -4 22 -7 0 -19 8 -24 18 -10 16 -10 15 -11 -3 -1 -18 -2 -17 -15 5 -14
24 -15 22 -10 -30z m31 -22 c-1 -13 1 -31 6 -40 6 -13 5 -16 -7 -12 -12 5 -15
37 -6 72 4 11 8 -3 7 -20z"/>
<path d="M840 846 c0 -2 7 -6 15 -10 8 -3 15 -1 15 4 0 6 -7 10 -15 10 -8 0
-15 -2 -15 -4z"/>
<path d="M1211 823 c-1 -12 -6 -25 -12 -29 -8 -4 -9 0 -4 15 3 12 2 21 -4 21
-12 0 -41 -28 -41 -41 0 -5 -4 -8 -9 -6 -5 1 -11 -2 -12 -7 -2 -5 7 -11 21
-13 14 -2 30 -10 37 -19 6 -9 17 -13 22 -9 6 3 15 -4 19 -16 7 -19 10 -20 15
-6 4 10 2 17 -3 17 -6 0 -10 7 -10 15 0 8 -7 15 -15 15 -19 0 -19 9 -1 29 9
10 11 23 6 36 -8 19 -9 19 -9 -2z"/>
<path d="M1750 824 c0 -5 7 -18 15 -28 8 -11 15 -16 15 -10 0 5 -7 18 -15 28
-8 11 -15 16 -15 10z"/>
<path d="M1751 774 c0 -11 3 -14 6 -6 3 7 2 16 -1 19 -3 4 -6 -2 -5 -13z"/>
<path d="M64 745 c18 -13 16 -15 -23 -21 -33 -5 -41 -11 -41 -28 1 -19 2 -19
11 -3 5 9 17 17 25 17 8 0 24 5 34 10 22 12 16 40 -9 40 -14 -1 -13 -3 3 -15z"/>
<path d="M744 753 c3 -6 2 -13 -3 -15 -4 -1 -12 -14 -16 -28 -7 -25 -7 -25 15
3 18 23 20 31 10 40 -10 9 -11 9 -6 0z"/>
<path d="M1257 739 c7 -7 15 -10 18 -7 3 3 -2 9 -12 12 -14 6 -15 5 -6 -5z"/>
<path d="M1895 720 c-3 -5 -1 -10 4 -10 6 0 11 5 11 10 0 6 -2 10 -4 10 -3 0
-8 -4 -11 -10z"/>
<path d="M1113 685 c0 -8 4 -12 9 -9 5 3 6 10 3 15 -9 13 -12 11 -12 -6z"/>
<path d="M1511 674 c-13 -13 -20 -24 -14 -24 5 0 20 11 33 25 30 32 13 31 -19
-1z"/>
<path d="M792 674 c7 -11 -17 -35 -27 -26 -3 4 -2 -5 3 -18 5 -14 11 -29 12
-35 1 -5 5 -9 10 -8 4 1 6 -12 4 -29 -2 -17 -1 -28 3 -24 11 11 12 66 1 66 -5
0 -6 5 -3 10 3 6 1 10 -4 10 -6 0 -11 5 -11 10 0 6 5 9 11 8 15 -4 20 30 7 39
-6 3 -9 2 -6 -3z"/>
<path d="M1251 664 c0 -11 3 -14 6 -6 3 7 2 16 -1 19 -3 4 -6 -2 -5 -13z"/>
<path d="M2428 673 c7 -3 16 -2 19 1 4 3 -2 6 -13 5 -11 0 -14 -3 -6 -6z"/>
<path d="M701 654 c-1 -5 -9 -19 -19 -30 -10 -10 -20 -23 -22 -29 -3 -5 -11
-9 -18 -7 -8 2 -11 -1 -7 -7 3 -6 2 -11 -4 -11 -5 0 -12 6 -14 13 -3 6 -6 3
-6 -8 -1 -11 -15 -32 -33 -47 -27 -22 -31 -29 -20 -40 7 -7 13 -8 12 -3 -5 25
1 26 19 6 11 -13 24 -20 29 -17 15 9 22 -20 9 -33 -9 -9 -8 -14 3 -21 8 -5 17
-7 20 -5 3 2 12 -10 19 -26 7 -17 16 -28 19 -25 2 3 -1 12 -8 21 -8 10 -9 15
-1 15 6 0 10 3 10 8 -4 25 4 30 46 27 43 -3 58 6 34 21 -6 3 -14 2 -18 -3 -3
-5 -19 -6 -36 -2 -16 4 -22 7 -12 8 10 0 17 4 15 9 -3 4 -10 22 -17 40 -9 22
-18 31 -28 28 -8 -3 -11 -1 -8 4 13 21 -11 9 -29 -15 -10 -14 -26 -25 -34 -25
-9 0 2 17 29 44 24 24 48 42 53 39 4 -3 17 -26 29 -52 11 -25 22 -41 24 -34 2
7 0 21 -6 32 -8 13 -8 28 -1 46 9 23 8 25 -9 15 -11 -5 -22 -10 -25 -10 -11 0
-6 48 6 52 6 2 8 11 5 19 -3 7 -6 9 -6 3z m-51 -154 c0 -5 -5 -10 -11 -10 -5
0 -7 5 -4 10 3 6 8 10 11 10 2 0 4 -4 4 -10z"/>
<path d="M2425 650 c3 -5 8 -10 11 -10 2 0 4 5 4 10 0 6 -5 10 -11 10 -5 0 -7
-4 -4 -10z"/>
<path d="M1955 639 c-9 -13 -3 -19 25 -24 22 -4 22 -4 5 15 -21 23 -22 23 -30
9z"/>
<path d="M587 623 c-3 -5 -1 -17 3 -28 6 -17 7 -16 12 8 5 25 -5 37 -15 20z"/>
<path d="M521 604 c0 -11 3 -14 6 -6 3 7 2 16 -1 19 -3 4 -6 -2 -5 -13z"/>
<path d="M1081 610 c-1 -26 14 -41 34 -34 14 6 16 4 10 -6 -5 -8 -4 -11 3 -6
5 3 13 0 15 -6 3 -8 6 -6 6 5 1 9 -4 17 -10 17 -5 0 -8 4 -5 9 3 4 -5 6 -18 4
-17 -4 -25 0 -29 14 -3 11 -5 13 -6 3z"/>
<path d="M1616 590 c-9 -33 7 -77 28 -77 9 0 16 4 16 9 0 4 -4 8 -9 8 -6 0
-14 19 -19 43 -8 38 -10 40 -16 17z"/>
<path d="M924 584 c3 -9 6 -23 6 -32 0 -14 2 -14 9 -3 10 16 3 51 -11 51 -6 0
-7 -7 -4 -16z"/>
<path d="M1950 580 c0 -5 5 -10 10 -10 6 0 10 5 10 10 0 6 -4 10 -10 10 -5 0
-10 -4 -10 -10z"/>
<path d="M1900 572 c0 -4 9 -8 20 -9 11 -1 20 2 20 8 0 5 -9 9 -20 9 -11 0
-20 -4 -20 -8z"/>
<path d="M2124 563 c20 -5 34 -16 67 -48 17 -17 21 -18 29 -5 14 22 12 33 -6
26 -9 -3 -28 3 -44 14 -15 11 -36 19 -47 19 -17 -1 -17 -2 1 -6z"/>
<path d="M1157 546 c-4 -10 -1 -13 9 -9 7 3 14 9 14 14 0 14 -17 10 -23 -5z"/>
<path d="M1310 553 c0 -6 8 -17 18 -24 16 -13 16 -13 2 6 -8 11 -16 22 -17 24
-2 2 -3 0 -3 -6z"/>
<path d="M2580 551 c0 -6 5 -13 10 -16 6 -3 10 1 10 9 0 9 -4 16 -10 16 -5 0
-10 -4 -10 -9z"/>
<path d="M261 524 c0 -11 3 -14 6 -6 3 7 2 16 -1 19 -3 4 -6 -2 -5 -13z"/>
<path d="M756 531 c-4 -7 -5 -15 -2 -18 9 -9 19 4 14 18 -4 11 -6 11 -12 0z"/>
<path d="M1944 529 c-3 -6 -15 -9 -25 -6 -14 4 -21 -1 -25 -19 -5 -19 -11 -23
-25 -19 -21 7 -25 -5 -8 -22 9 -9 16 -6 30 10 16 20 18 20 24 5 7 -17 35 -14
35 5 0 6 7 18 15 27 14 16 14 18 1 23 -9 4 -18 1 -22 -4z"/>
<path d="M365 520 c3 -5 8 -10 11 -10 2 0 4 5 4 10 0 6 -5 10 -11 10 -5 0 -7
-4 -4 -10z"/>
<path d="M1025 519 c-10 -15 3 -25 16 -12 7 7 7 13 1 17 -6 3 -14 1 -17 -5z"/>
<path d="M1992 505 c-17 -37 -14 -45 4 -12 9 16 14 31 11 33 -2 2 -9 -7 -15
-21z"/>
<path d="M39 503 c-13 -16 -12 -17 4 -4 9 7 17 15 17 17 0 8 -8 3 -21 -13z"/>
<path d="M524 505 c-7 -17 3 -35 19 -35 8 0 8 3 0 11 -6 6 -9 18 -6 25 3 8 2
14 -1 14 -4 0 -9 -7 -12 -15z"/>
<path d="M1730 516 c0 -2 7 -7 16 -10 8 -3 12 -2 9 4 -6 10 -25 14 -25 6z"/>
<path d="M1670 494 c0 -8 5 -12 10 -9 6 4 8 11 5 16 -9 14 -15 11 -15 -7z"/>
<path d="M1770 489 c0 -5 5 -7 10 -4 6 3 17 -1 26 -9 18 -19 41 -11 25 8 -12
15 -61 19 -61 5z"/>
<path d="M1366 475 c4 -8 8 -15 10 -15 2 0 4 7 4 15 0 8 -4 15 -10 15 -5 0 -7
-7 -4 -15z"/>
<path d="M2193 483 c4 -3 2 -12 -5 -20 -8 -10 -8 -17 0 -25 9 -9 12 -8 12 4 0
9 3 23 6 32 4 10 1 16 -7 16 -7 0 -9 -3 -6 -7z"/>
<path d="M466 464 c-8 -20 -4 -25 11 -16 7 4 9 13 4 21 -6 10 -10 9 -15 -5z"/>
<path d="M770 471 c0 -5 7 -14 15 -21 8 -6 14 -15 13 -18 -3 -17 16 -42 31
-41 10 0 11 2 4 6 -7 2 -13 13 -13 24 0 10 -4 19 -9 19 -5 0 -11 9 -14 20 -5
20 -27 29 -27 11z"/>
<path d="M2100 470 c0 -5 5 -10 11 -10 5 0 7 5 4 10 -3 6 -8 10 -11 10 -2 0
-4 -4 -4 -10z"/>
<path d="M1180 466 c0 -2 7 -9 15 -16 9 -7 15 -8 15 -2 0 5 -7 12 -15 16 -8 3
-15 4 -15 2z"/>
<path d="M1650 451 c0 -12 -7 -30 -16 -38 -13 -14 -17 -14 -25 -2 -9 14 -10
12 -14 -29 -2 -17 1 -20 8 -13 14 14 40 14 32 1 -4 -6 -1 -18 6 -26 16 -19 5
-30 -12 -11 -7 7 -22 12 -33 10 -15 -3 -27 5 -39 24 l-18 28 4 -32 c3 -28 1
-31 -15 -22 -20 11 -58 3 -58 -11 0 -5 6 -10 13 -13 19 -7 3 -17 -36 -24 -31
-5 -39 -1 -81 41 -44 43 -76 66 -92 66 -3 0 -1 -6 5 -13 6 -8 7 -18 3 -22 -4
-5 -2 -5 5 -2 15 9 43 -2 43 -17 0 -6 10 -16 23 -21 23 -10 38 -65 18 -65 -6
0 -11 5 -11 12 0 9 -3 9 -12 0 -9 -9 -10 -15 -2 -20 13 -8 25 -52 15 -52 -4 0
-20 13 -34 30 -15 16 -32 28 -39 26 -7 -1 -10 -1 -5 1 10 7 9 23 -3 23 -5 0
-12 -11 -16 -25 -3 -13 -9 -23 -14 -22 -4 1 -16 -8 -26 -21 -17 -20 -21 -21
-46 -8 -16 8 -30 10 -35 5 -9 -9 -58 -16 -157 -23 -22 -1 -41 -7 -43 -13 -2
-6 -12 -9 -23 -6 -10 3 -27 -4 -38 -15 -20 -20 -20 -20 -31 2 -7 11 -9 13 -7
4 3 -11 0 -15 -8 -12 -7 3 -20 -4 -30 -15 -10 -11 -22 -18 -27 -15 -5 2 -17
-3 -27 -13 -41 -40 -71 -61 -76 -56 -3 4 -6 1 -6 -6 0 -8 -8 -11 -19 -8 -11 3
-28 -1 -38 -8 -10 -7 -30 -15 -43 -18 -14 -3 19 -5 74 -5 102 0 141 14 129 44
-3 8 -1 14 5 14 6 0 13 -6 15 -12 3 -8 6 -5 6 5 1 10 5 16 10 13 5 -4 11 0 14
6 3 9 11 6 25 -10 20 -23 50 -26 64 -7 4 6 11 11 15 11 25 5 53 18 53 25 0 5
-7 6 -15 3 -26 -11 -16 11 12 24 38 17 50 15 67 -10 13 -18 16 -19 16 -5 0 9
-5 17 -12 17 -9 0 -9 3 1 13 10 10 14 9 22 -6 6 -9 15 -17 22 -17 8 0 6 4 -3
11 -11 8 -8 9 13 4 21 -4 27 -2 21 6 -4 7 -2 10 7 7 8 -3 20 2 27 9 10 10 18
11 27 3 8 -7 21 -7 36 -1 13 5 20 10 14 10 -15 1 28 29 50 32 21 3 105 -36
117 -55 5 -7 8 -3 8 9 0 17 2 17 10 5 6 -10 10 -11 10 -3 0 15 21 13 32 -2 4
-6 13 -2 22 10 13 17 15 17 16 4 0 -17 -23 -42 -31 -34 -3 2 -6 -9 -7 -26 -2
-19 2 -28 8 -24 5 3 10 1 10 -4 0 -14 -30 -14 -50 -1 -13 9 -13 12 4 25 10 7
15 18 12 23 -6 10 -43 5 -61 -8 -5 -4 -22 -7 -37 -6 -16 1 -28 -1 -28 -5 0 -9
29 -16 63 -15 15 1 27 -2 27 -6 0 -12 -47 -21 -62 -12 -25 16 -54 14 -76 -6
-20 -19 -22 -19 -32 -2 -9 14 -10 14 -5 -6 6 -21 4 -23 -30 -20 -23 1 -40 -3
-45 -12 -8 -12 1 -16 52 -18 33 -2 74 2 91 7 17 7 35 7 41 2 6 -5 84 -9 174
-10 160 -2 163 -2 145 17 -47 50 -72 85 -67 93 3 5 10 6 16 3 7 -4 8 -2 4 5
-6 9 -11 9 -23 0 -12 -10 -19 -7 -38 17 -28 35 -25 43 10 20 14 -9 25 -12 25
-6 0 6 5 8 10 5 6 -3 10 -1 10 4 0 6 -7 11 -15 11 -9 0 -20 10 -25 23 -5 12
-9 18 -9 14 -1 -4 -19 11 -41 33 -39 40 -51 58 -29 44 6 -3 15 -1 19 6 7 11
12 10 25 -3 9 -10 21 -17 26 -17 6 0 17 -7 25 -15 34 -34 46 -4 17 43 l-17 27
22 -22 c19 -19 27 -21 49 -12 22 8 32 6 54 -10 21 -16 28 -17 32 -7 3 8 -1 22
-8 33 -8 10 -15 26 -15 35 0 25 -23 28 -37 4 -11 -19 -12 -18 -13 14 -1 29 -3
31 -10 15 -8 -18 -9 -17 -9 8 -1 16 3 26 9 22 6 -4 7 6 3 27 -7 41 -13 49 -13
19z m-80 -141 c0 -5 -2 -10 -4 -10 -3 0 -8 5 -11 10 -3 6 -1 10 4 10 6 0 11
-4 11 -10z m34 -46 c3 -8 2 -12 -4 -9 -6 3 -10 10 -10 16 0 14 7 11 14 -7z
m-124 -19 c7 -9 8 -15 2 -15 -5 0 -12 7 -16 15 -3 8 -4 15 -2 15 2 0 9 -7 16
-15z m40 -40 c7 -9 8 -15 2 -15 -5 0 -12 7 -16 15 -3 8 -4 15 -2 15 2 0 9 -7
16 -15z"/>
<path d="M547 444 c6 -15 23 -19 23 -5 0 5 -7 11 -14 14 -10 4 -13 1 -9 -9z"/>
<path d="M590 430 c0 -5 5 -10 10 -10 6 0 10 5 10 10 0 6 -4 10 -10 10 -5 0
-10 -4 -10 -10z"/>
<path d="M2116 427 c3 -10 9 -15 12 -12 3 3 0 11 -7 18 -10 9 -11 8 -5 -6z"/>
<path d="M1248 423 c6 -2 18 -2 25 0 6 3 1 5 -13 5 -14 0 -19 -2 -12 -5z"/>
<path d="M1339 417 c7 -10 10 -17 5 -17 -11 -1 27 -30 38 -30 15 0 -12 39 -35
51 -20 11 -21 11 -8 -4z"/>
<path d="M240 399 c7 -11 14 -19 16 -16 7 7 -7 37 -17 37 -6 0 -5 -9 1 -21z"/>
<path d="M282 409 c3 -8 1 -24 -3 -36 -6 -17 -5 -21 6 -16 18 6 20 49 4 59 -7
4 -10 1 -7 -7z"/>
<path d="M1410 409 c0 -5 5 -7 10 -4 6 3 10 8 10 11 0 2 -4 4 -10 4 -5 0 -10
-5 -10 -11z"/>
<path d="M1565 410 c-3 -5 1 -10 9 -10 9 0 16 5 16 10 0 6 -4 10 -9 10 -6 0
-13 -4 -16 -10z"/>
<path d="M1930 404 c6 -6 6 -14 2 -19 -4 -4 0 -6 8 -3 24 7 25 37 1 35 -14 -1
-17 -5 -11 -13z"/>
<path d="M1516 377 c3 -10 9 -15 12 -12 3 3 0 11 -7 18 -10 9 -11 8 -5 -6z"/>
<path d="M1737 371 c-6 -23 7 -46 21 -37 11 6 5 43 -8 51 -4 3 -10 -4 -13 -14z"/>
<path d="M188 373 c6 -2 18 -2 25 0 6 3 1 5 -13 5 -14 0 -19 -2 -12 -5z"/>
<path d="M578 373 c7 -3 16 -2 19 1 4 3 -2 6 -13 5 -11 0 -14 -3 -6 -6z"/>
<path d="M477 340 c-3 -14 -1 -17 11 -13 9 4 13 2 9 -4 -5 -7 1 -10 15 -7 13
2 18 2 11 -2 -10 -4 -10 -8 0 -18 10 -11 14 -10 23 2 9 13 7 19 -10 32 -35 27
-54 31 -59 10z"/>
<path d="M2540 324 c0 -14 4 -23 9 -20 5 3 7 15 4 26 -7 28 -13 25 -13 -6z"/>
<path d="M2592 325 c0 -16 2 -22 5 -12 2 9 2 23 0 30 -3 6 -5 -1 -5 -18z"/>
<path d="M1780 332 c0 -12 19 -26 26 -19 2 2 -2 10 -11 17 -9 8 -15 8 -15 2z"/>
<path d="M60 313 c0 -12 5 -25 10 -28 13 -8 13 15 0 35 -8 12 -10 11 -10 -7z"/>
<path d="M1293 315 c-26 -11 -32 -31 -7 -21 8 3 25 1 37 -6 19 -9 20 -9 11 3
-6 8 -13 19 -15 24 -3 7 -11 7 -26 0z"/>
<path d="M610 311 c0 -5 5 -13 10 -16 6 -3 10 -2 10 4 0 5 -4 13 -10 16 -5 3
-10 2 -10 -4z"/>
<path d="M651 294 c0 -11 3 -14 6 -6 3 7 2 16 -1 19 -3 4 -6 -2 -5 -13z"/>
<path d="M2380 299 c0 -5 5 -7 10 -4 6 3 10 8 10 11 0 2 -4 4 -10 4 -5 0 -10
-5 -10 -11z"/>
<path d="M290 280 c0 -13 5 -18 14 -14 8 3 12 12 9 20 -8 21 -23 17 -23 -6z"/>
<path d="M1635 270 c-10 -16 5 -50 21 -50 8 0 14 5 14 10 0 6 -7 10 -16 10
-11 0 -14 6 -9 20 7 21 1 27 -10 10z"/>
<path d="M534 235 c22 -17 40 -20 32 -6 -3 5 -16 11 -28 14 -22 6 -22 5 -4 -8z"/>
<path d="M322 210 c0 -14 2 -19 5 -12 2 6 2 18 0 25 -3 6 -5 1 -5 -13z"/>
<path d="M1601 209 c6 -12 16 -15 31 -11 19 5 20 7 5 10 -9 2 -15 7 -13 11 3
4 -4 7 -14 7 -14 0 -16 -4 -9 -17z"/>
<path d="M1660 201 c0 -5 7 -12 16 -15 14 -5 15 -4 4 9 -14 17 -20 19 -20 6z"/>
<path d="M1705 190 c-3 -5 -1 -10 4 -10 6 0 11 5 11 10 0 6 -2 10 -4 10 -3 0
-8 -4 -11 -10z"/>
<path d="M785 139 c-4 -6 -5 -12 -2 -15 2 -3 7 2 10 11 7 17 1 20 -8 4z"/>
<path d="M2515 135 c-5 -11 -10 -24 -13 -30 -3 -5 3 -3 13 7 9 9 15 22 12 30
-3 9 -7 7 -12 -7z"/>
<path d="M1278 101 c-8 -12 -18 -18 -21 -14 -4 3 -7 1 -7 -5 0 -16 21 -14 44
3 14 11 17 18 9 26 -8 8 -15 5 -25 -10z"/>
<path d="M1639 103 c5 -11 8 -22 6 -25 -3 -3 5 -13 17 -24 19 -16 20 -16 9 -1
-17 21 -7 35 13 18 11 -9 15 -8 20 4 3 10 -1 15 -12 15 -10 0 -28 7 -41 16
-22 16 -23 16 -12 -3z"/>
<path d="M1110 99 c0 -5 5 -7 10 -4 6 3 10 8 10 11 0 2 -4 4 -10 4 -5 0 -10
-5 -10 -11z"/>
<path d="M1003 93 c9 -2 23 -2 30 0 6 3 -1 5 -18 5 -16 0 -22 -2 -12 -5z"/>
<path d="M1168 60 c-1 -5 -15 -11 -30 -12 -15 -1 -25 -5 -22 -9 3 -6 -35 -15
-88 -21 -9 -1 -14 -6 -11 -11 6 -10 83 -6 83 5 0 4 10 8 23 8 13 0 34 11 47
25 13 14 19 25 13 25 -6 0 -13 -4 -15 -10z"/>
<path d="M1740 45 c0 -8 2 -15 4 -15 2 0 6 7 10 15 3 8 1 15 -4 15 -6 0 -10
-7 -10 -15z"/>
<path d="M1975 50 c3 -5 8 -10 11 -10 2 0 4 5 4 10 0 6 -5 10 -11 10 -5 0 -7
-4 -4 -10z"/>
<path d="M160 8 c0 -4 7 -8 15 -8 8 0 15 4 15 8 0 5 -7 9 -15 9 -8 0 -15 -4
-15 -9z"/>
</g>
</svg>
